<?xml version="1.0" encoding="UTF-8" standalone="no"?>
<svg
   xmlns:dc="http://purl.org/dc/elements/1.1/"
   xmlns:cc="http://creativecommons.org/ns#"
   xmlns:rdf="http://www.w3.org/1999/02/22-rdf-syntax-ns#"
   xmlns:svg="http://www.w3.org/2000/svg"
   xmlns="http://www.w3.org/2000/svg"
   height="245.2"
   width="245.2"
   xml:space="preserve"
   viewBox="0 0 245.2 245.2"
   y="0px"
   x="0px"
   id="logo"
   version="1.1"><metadata
     id="metadata141"><rdf:RDF><cc:Work
         rdf:about=""><dc:format>image/svg+xml</dc:format><dc:type
           rdf:resource="http://purl.org/dc/dcmitype/StillImage" /><dc:title></dc:title></cc:Work></rdf:RDF></metadata><defs
     id="defs139" /><style
     id="style86"
     type="text/css">
	.st0{fill:#FFFFFF;}
	.st1{fill:#4C4C4C;}
	.st2{fill:#CC0000;}
</style><path
     style="fill:#ffffff"
     id="path88"
     d="M 180.9,171.2 132.2,53.9 c -1.4,-3.4 -4.2,-5.2 -7.5,-5.2 -3.4,0 -6.4,1.8 -7.8,5.2 L 63.4,182.6 h 18.3 l 21.2,-53 63.2,51 c 2.5,2.1 4.4,3 6.8,3 4.8,0 8.9,-3.6 8.9,-8.7 0,-0.9 -0.3,-2.3 -0.9,-3.7 z M 124.7,75 l 31.7,78.2 -47.9,-37.7 z"
     class="st0" /><path
     style="fill:#000000;fill-opacity:1"
     id="path132"
     d="m 245.2,122.6 c 0,67.7 -54.9,122.6 -122.6,122.6 C 54.9,245.2 0,190.3 0,122.6 0,54.9 54.9,0 122.6,0 190.3,0 245.2,54.9 245.2,122.6"
     class="st2" /><path
     style="fill:#ffffff"
     id="path134"
     d="M 181,173 132.2,55.6 c -1.4,-3.4 -4.2,-5.2 -7.6,-5.2 -3.4,0 -6.4,1.8 -7.8,5.2 L 63.3,184.4 h 18.3 l 21.2,-53.1 63.3,51.1 c 2.5,2.1 4.4,3 6.8,3 4.8,0 9,-3.6 9,-8.8 0,-0.8 -0.3,-2.1 -0.9,-3.6 M 124.7,76.7 156.4,155 108.5,117.2 Z"
     class="st0" /></svg>