<?xml version="1.0" encoding="UTF-8" standalone="no"?>
<svg
   xmlns:svg="http://www.w3.org/2000/svg"
   xmlns="http://www.w3.org/2000/svg"
   height="527.29999"
   width="1354"
   id="svg220"
   version="1.1"
   viewBox="0 0 1354 527.29999">
  <defs
     id="defs224" />
  <path
     id="path216"
     d="m 928.6,46.8 -0.3,-2.9 -4.7,0.4 0.3,2.9 z m 31.6,76 0.1,1.6 3.3,-0.3 c -0.1,-1 0.3,-2.6 1,-4.6 l -0.3,-2.9 c -1.4,0.1 -2.8,2.2 -4.1,6.2 z m -123.3,95.7 c -0.2,-2.7 -8.6,-13.2 -25.2,-31.7 -0.3,-3.4 5.4,-8.5 17.1,-15.2 l 33.4,-29.1 c 7.5,-9.5 11.9,-24.9 13.2,-46.3 L 875,91.3 c -1.3,-14.8 -12,-26.7 -32.3,-35.8 -12,-8.1 -33.6,-12.6 -64.8,-13.4 -25.8,2.2 -59.5,11.4 -101,27.7 -11.4,8.2 -24.4,16.4 -39,24.6 l 0.2,2.5 c 0.9,-0.1 2.3,-0.6 3.9,-1.7 1.7,-0.2 2.7,0.6 2.8,2.2 l 2.5,-1.3 1.2,-0.1 0.1,1.1 c 0.1,1.3 -8.9,8.4 -27.1,21.1 l 1.4,2.6 -1.2,0.1 -3,-1.1 c 0.1,0.9 -1.2,1.5 -3.7,1.7 l 0.1,1.1 2.9,3.6 c -0.9,0.1 -2.3,-0.3 -4.2,-1 -4.2,0.4 -8.3,2.6 -12.4,6.8 l 1.7,-7.4 C 609.2,98.3 613.4,75 615.6,54.8 l -0.3,-1.3 C 611.1,50.8 607,47 603.2,42.2 c 0.1,-3.1 0.1,-4.9 0,-5.3 l -0.3,-1.1 -1.2,0.3 c -13.2,19.8 -38.6,53.6 -76.3,101.4 -28.7,34 -43.5,52.9 -44.4,56.7 -11.7,12.1 -17.3,19.4 -16.7,21.9 -3.1,2 -4.4,4 -3.9,6.2 -0.9,0.2 -1.5,-0.1 -1.7,-1 -5,8.1 -12.4,13.3 -22.3,15.6 l -10.4,2.4 c -1.4,0.3 -2.1,1.3 -2,3 l 0.3,1.3 3.9,-0.9 0.3,1.1 -8.8,3.4 -15.6,3.6 -8.2,0.5 c -1.2,1.2 6.5,-0.1 3.5,0.6 l -10.2,2.4 c -6.2,1.4 -9.6,0.9 -10.2,-1.6 l -1.2,0.3 c 0.2,1.1 0.3,1.9 0.1,2.6 l -0.6,-2.5 -8.2,1.9 c -0.6,-3.8 -11.7,-17.6 -33.2,-41.4 -0.4,-4.6 7.2,-11.3 22.7,-20 l 43.8,-38.5 c 9.8,-12.6 15.6,-32.8 17.5,-60.6 L 419.3,88 C 417.6,68.4 403.4,52.6 376.7,40.4 360.9,29.7 332.5,24 291.5,23.1 c -34,2.9 -78.4,15 -133,36.1 -15,10.9 -32.1,21.7 -51.3,32.4 l 0.3,3.4 c 1.3,-0.1 3,-0.8 5.1,-2 2.2,-0.2 3.4,0.8 3.6,2.8 l 3.4,-1.9 1.7,-0.1 0.1,1.6 c 0.1,1.6 -11.8,10.9 -35.9,27.9 l 1.9,3 -1.7,0.1 -3.7,-1.3 c 0.1,1 -1.6,1.7 -5.1,2 l 0.2,1.8 4,4.4 c -1.3,0.1 -3.1,-0.3 -5.4,-1.1 -7.8,0.7 -15.4,6.3 -22.9,16.9 l 1.9,3 c 6.5,-6 10.3,-9 11.4,-9.1 l 0.4,4.9 c -1.1,0.1 -2.8,0.8 -5.1,2 l 4.1,6.2 c 7.9,-8.5 16.6,-15.8 26.1,-21.9 4.7,1.2 7.2,2.7 7.3,4.3 l 3.6,-0.3 c 25.8,-19.1 51.3,-32.9 76.6,-41.4 l 0.3,3.4 c -4.7,7 -7.9,10.6 -9.6,10.8 0.2,2.4 1,4.5 2.5,6.3 0.4,4.3 -11.1,33.3 -34.4,86.9 C 85,328.8 40.6,421 4.5,480.6 c 0.1,1.2 0.8,2.8 2.1,4.8 8.9,-2.1 14.5,-4.3 16.9,-6.4 l 1.9,-0.2 0.3,3.4 3.3,-0.3 3.4,-1.9 c 0.1,1 1.2,1.5 3.5,1.3 l 0.3,3.4 C 36.5,488 34.6,493 30.6,499.9 27,504 23.1,512.6 19,525.7 l 0.1,1.6 3.3,-0.3 c 14.4,-16.1 25.3,-31.9 32.8,-47.3 42,-12.3 74,-24.4 96.2,-36.3 22.3,-1.9 39.3,-7.8 50.9,-17.5 l -0.2,-1.8 -8.4,2.5 -1.9,0.2 -0.2,-1.8 c 16.4,-2.5 27.7,-6.1 34,-11.1 31.9,-24.6 56,-42 72.3,-52.3 33.5,-24.6 55.3,-48.6 65.2,-71.9 1.8,-0.4 3.6,-0.8 5.6,-1.3 4.7,-0.2 7.3,-0.3 8,-0.5 -0.2,-0.9 0.2,-1.4 1.1,-1.6 7.5,-0.8 3.9,0.5 8.7,-0.6 l 12.6,-2.9 c -0.8,0.2 -1.1,0.6 -0.9,1.4 l 1.9,-1.2 c -0.4,0 -0.7,-0.1 -1,-0.2 l 2.1,-0.5 -1,0.6 c 1.4,0.2 2.9,0.1 4.6,-0.3 l 0.9,3.7 -57.3,91.1 -12.7,15.9 -6.2,20.8 1.2,-0.3 6.2,-2.6 -2,8.1 0.6,2.4 1.7,2.1 c -0.8,0.2 -1.1,0.7 -0.9,1.6 l 0.3,1.3 2.6,-0.6 c 3.8,-3.3 5.4,-6.3 4.8,-9 4.1,0.7 6.8,1 8.2,0.6 l 0.3,1.3 c -2.5,0.6 -3.8,2.6 -4,6 l 0.3,1.3 1.4,-0.3 C 371,403.3 422,325.6 462.9,272.9 c -1.3,-5.7 20,-13.6 64,-23.8 l 1.4,-0.3 c 1.6,6.9 -1.8,23.6 -10.2,50.1 -5.4,16 -8,24.8 -7.6,26.2 -7,21.3 -10.3,32.8 -9.9,34.6 L 485,410.8 c -10.1,26.2 -17.8,53.7 -23.2,82.7 0.9,-0.2 2.3,-0.1 4.3,0.4 l 2.2,-1.9 c 0.2,0.9 0.8,1.2 1.7,1 l -0.9,-3.7 6.8,-0.2 c 2,-0.5 3.7,-3 5.1,-7.6 -0.3,-6.9 1.1,-10.6 4.2,-11.4 4.2,-16.4 6.8,-24.6 7.7,-24.9 3.9,-16.3 6.8,-25.6 8.7,-27.9 5.9,-21.2 10.2,-32.1 13,-32.8 l 0.6,2.6 -4.3,11.1 c -7.5,33.3 -15.1,59.6 -22.8,78.9 l 2.2,9.6 1.4,-0.3 c 18.6,-40 45.4,-119.2 80.3,-237.6 1,-10.4 6,-18.5 14.9,-24.2 l -2,-2.1 -0.3,-1.1 c 4,-0.9 6.8,-2.5 8.4,-4.7 -0.2,-0.9 -3.7,-2.2 -10.5,-4 l 17.4,-74.6 c 3.8,-3.4 6,-5.2 6.7,-5.2 l 0.3,3.8 c -0.9,0.1 -2.3,0.6 -3.9,1.7 l 3.3,4.7 c 6,-6.5 12.5,-12.1 19.6,-16.8 3.6,1 5.4,2.2 5.6,3.4 l 2.6,-0.2 c 19.8,-14.5 39.2,-24.9 58.3,-31.2 l 0.2,2.5 c -3.5,5.3 -5.9,8 -7.2,8.1 0.2,1.8 0.7,3.4 1.6,4.8 0.3,3.3 -8.3,25.3 -25.9,66.1 -40.2,94.5 -73.9,164.4 -101.3,209.8 0.1,0.9 0.7,2.1 1.8,3.7 6.7,-1.6 11,-3.3 12.7,-4.9 l 1.2,-0.1 0.2,2.5 2.8,-0.2 2.5,-1.3 c 0.1,0.7 1,1 2.7,0.9 l 0.2,2.7 c 0.2,2.4 -1.2,6.2 -4.3,11.4 -2.9,3.1 -5.9,9.6 -9.1,19.5 l 0.1,1.3 2.6,-0.2 c 10.9,-12.2 19.2,-24.2 24.9,-36 31.9,-9.4 56.2,-18.5 73,-27.5 17.1,-1.5 30,-5.9 38.8,-13.3 l -0.1,-1.3 -6.5,1.9 -1.4,0.1 -0.1,-1.3 c 12.4,-1.8 21.1,-4.6 25.8,-8.3 24.2,-18.6 42.5,-31.9 54.9,-39.7 38.6,-28.1 56.6,-55.1 54.4,-81 z m -6.6,1.7 0.9,10.1 c -1.2,2.5 -2.5,3.8 -3.7,3.9 L 826,217 c 2.8,1 4.2,2 4.3,3.2 z m -757.2,-81.4 -1.7,0.1 -0.3,-3.1 6.9,-0.6 0.1,1.6 c -1.1,0.1 -2.8,0.7 -5,2 z M 39.4,475.9 c -4,-1.8 -7.6,-2.5 -10.7,-2.2 l -0.4,-4.9 c -0.2,-1.9 0.9,-3.2 3.3,-3.7 2.2,-0.2 3.5,1.4 3.7,4.6 5.8,-7.1 9,-10.7 9.6,-10.8 l 3.7,1.5 c -1.2,10 -4.3,15.1 -9.2,15.5 z M 399.5,99.2 c -1.7,0.2 -5.1,-5.1 -10,-15.6 l -0.3,-3.1 c 3.2,-0.3 6.5,4.9 10,15.6 z m -4.8,-37.3 -1.4,3.3 -48.9,-20.4 c 32.6,1.1 49.4,6.8 50.3,17.1 z m -206.5,177.3 -6.9,0.6 -0.3,-3.1 6.9,-0.6 z m -5.6,-106.5 1.7,-0.1 0.4,4.9 c -1.6,0.1 -3.7,2.5 -6.3,7.1 l -0.3,-3.4 c 3.1,-3.7 4.7,-6.5 4.5,-8.5 z m -14.5,34.2 0.6,6.5 -1.7,0.1 -0.6,-6.5 z m -7.6,12.2 3.3,-0.3 c -0.3,5.4 -1.8,8.3 -4.5,8.5 l -1.7,0.1 c 2.1,-3.6 3.1,-6.4 2.9,-8.3 z m -5.7,17 1.9,-0.2 0.1,1.6 -3.1,5.2 -3.3,0.3 -0.1,-1.6 c 3.3,-0.3 4.8,-2 4.5,-5.3 z m -5.6,15.3 -1,8.2 -1.7,0.1 -0.7,-8.1 z M 93.1,370.9 C 90.9,382.1 88.5,387.8 86,388 l -0.1,-1.6 c -0.6,-5.5 1.8,-10.7 7.2,-15.5 z m -10.3,22.3 0.1,1.6 c 0.2,2.2 -0.8,3.5 -3,3.6 l -0.1,-1.6 c -0.2,-1.9 0.8,-3.1 3,-3.6 z m -3,46.3 5.2,-0.5 0.2,1.8 c -1.3,0.1 -3,0.8 -5.1,2 l -3.3,0.3 c -0.2,-1.7 0.9,-3 3,-3.6 z m 148,-45.7 c -29.2,14.4 -46.4,24.2 -51.5,29.3 -31.6,11 -47.3,17.8 -47,20.5 -28.1,11.1 -46.6,19.3 -55.5,24.4 -2.1,0.2 -5.1,-0.6 -9.1,-2.4 -0.5,-5.7 2.1,-10.3 7.6,-14 4.9,-0.4 9.6,0.3 14.1,2.2 5.2,-2.7 14.3,-5.7 27.2,-8.9 l -0.3,-3.4 -10.4,0.9 c 1.3,-1.8 11.3,-6.5 30.1,-14.1 l 5.2,-0.5 0.1,1.6 c -8.9,0.8 -13.8,3.4 -14.9,8.1 0.2,2.1 1.4,3 3.6,2.8 6.7,-4.2 10,-6.7 9.9,-7.4 12.7,-2.4 47.8,-20.8 105.3,-55.1 l 0.3,3.1 c 0.1,1.5 -4.8,5.7 -14.7,12.9 z m -88.2,29 c 8.4,-0.7 15.6,-4.1 21.6,-10 2.4,-0.2 3.7,0.7 3.8,2.8 -4.1,0.4 -12,3.8 -23.5,10.4 l -1.7,0.1 z m 142.3,-109.3 -44.1,34.9 c -32.8,21.5 -50.4,32.3 -52.9,32.5 -52.2,28.7 -84.7,43.6 -97.3,44.7 l -1.9,0.2 c 1.6,-5.9 24.8,-53.4 69.8,-142.8 19.8,-1.7 51,-10.9 93.5,-27.7 l 10.4,-0.9 c 21.5,-1.9 37.6,2.3 48.2,12.3 l 0.6,6.5 c -8,23 -16.8,36.4 -26.3,40.3 z m -86.2,-48.5 7.1,-0.6 0.1,1.6 -7.1,0.6 z m 99.7,-16.9 5.2,-0.5 c 4.8,2.3 7.3,4.3 7.5,6.1 l 0.1,1.6 c -4.6,0.4 -8.9,-2 -12.8,-7.2 z m 14.1,-80.3 c -4.6,5.5 -17.2,14.9 -37.8,28.1 -6.8,0.6 -32.1,10.4 -75.9,29.6 -2.2,-1 -4.5,-1.4 -7,-1.2 l -0.3,-3.1 c -0.5,-6.3 2.3,-14.2 8.5,-23.8 3.4,-18 7.1,-28.3 11.2,-30.8 l 36.5,-82.1 c -0.4,-5.1 7.4,-9 23.4,-11.7 l 5.2,-0.5 0.4,4.7 c 15.7,-2.4 25.5,-3.8 29.3,-4.1 29,-2.5 44.1,3.4 45.3,17.5 l 3.3,-0.3 -0.7,-8.3 3.6,-0.3 c 8.5,4.7 13.1,10.4 13.7,17.1 0.4,4.6 -2.1,10.3 -7.4,17.1 -2.2,0.2 -3.5,-1.4 -3.7,-4.6 l -3.6,0.3 -0.8,10 c -14.7,22 -25.4,33.3 -32,33.9 -6,8.3 -9.7,12.4 -11.2,12.5 z m 22.4,57.5 c -3,-2 -5.4,-2.9 -7.2,-2.8 l -0.4,-4.9 3.3,-0.3 7.3,4.3 c 0.3,2.3 -0.7,3.5 -3,3.7 z m 23.2,27.5 c 3.2,1.3 5.1,2.7 5.5,4 l -1.6,0.4 0.1,0.1 c -0.3,0 -0.7,0.1 -1,0.2 l -2.4,1.9 z m 2.2,13.8 -0.3,-1.3 4.2,-1 0.3,1.3 z m 10.1,11.3 c 4.3,-0.7 6.4,-1 14.4,-2.8 l 0.3,1.3 -15.2,3.5 c 0.2,-0.7 0.4,-1.4 0.5,-2 z m 14.8,6.3 c -6.4,0.6 -5,-0.2 -15.2,2.1 l -0.3,-1.3 12.7,-4.1 6.1,-1.4 0.6,2.4 c -2.7,0.6 -0.7,0.6 -3.9,2.3 z m 13.5,-3.2 c -1.5,0.4 -2.7,-0.3 -3.4,-2 l 3.9,-0.9 c 1.7,-0.4 2.8,0.3 3.2,2 z m 36.6,-39.4 -0.3,-1.3 6.3,-1.5 0.6,2.4 z m 39.1,239.8 c 0.4,-1.8 0.5,-3.1 0.3,-4 l 1.4,-0.3 c 1.7,-0.4 2.7,0.2 3.1,1.8 l 0.3,1.3 z m 27.4,-229.5 -2.8,-0.5 c -4.5,1.8 -8.3,3.1 -11.4,3.8 l -2.6,0.6 c -1.5,0.4 -2.7,-0.2 -3.3,-1.8 l 18.3,-4.2 6,-2.8 2,2.3 c -2.9,0.6 -5,1.5 -6.2,2.6 z m 14.1,-4.5 -0.3,-1.3 c 0.9,-0.2 2.1,-0.9 3.4,-2.2 l 13,-3 0.3,1.3 c -6.9,1.7 -12.4,3.4 -16.4,5.2 z m 2,-26.3 c -0.9,0.2 -2.1,1 -3.6,2.2 -0.2,-0.9 -2,-0.9 -5.4,-0.1 -0.6,-2.5 9,-6 28.9,-10.6 l 2.8,-0.6 0.6,2.4 c -14,4.1 -21.8,6.4 -23.3,6.7 z m 35,-37.8 c -1.4,15.9 -7,24.9 -16.9,27.2 l -0.3,-1.3 -8.8,3.4 -3.9,0.9 c -2,0.5 -3.8,0.4 -5.4,-0.1 l -0.8,-3.5 c -0.3,-1.3 12.4,-18.9 38.2,-52.7 l 3,0.5 c 1.1,4.6 -0.6,13.1 -5.1,25.6 z m 61.9,-53 -1.2,0.1 -0.2,-2.5 5.2,-0.5 0.1,1.3 c -0.9,0.2 -2.2,0.7 -3.9,1.6 z m -25.5,256.1 c -3,-1.4 -5.7,-2 -8,-1.8 l -0.3,-3.8 c -0.1,-1.3 0.7,-2.2 2.4,-2.7 1.7,-0.2 2.7,1 2.9,3.6 4.3,-5.5 6.7,-8.3 7.2,-8.3 l 2.7,1.1 c -1,7.6 -3.3,11.6 -6.9,11.9 z m 273.4,-286 c -1.3,0.1 -3.8,-3.9 -7.7,-12 l -0.2,-2.5 c 2.5,-0.2 5.1,3.7 7.7,11.7 z m -3.6,-28.6 -1.2,2.6 -37,-15.5 c 24.7,0.8 37.5,5.1 38.2,12.9 z m -156.9,134.7 -5.2,0.5 -0.2,-2.5 5.2,-0.4 z m -4.3,-80.9 1.4,-0.1 0.3,3.8 c -1.3,0.1 -2.9,1.9 -4.8,5.4 l -0.2,-2.5 c 2.3,-2.9 3.4,-5.1 3.3,-6.6 z m -10.9,26 0.4,4.9 -1.4,0.1 -0.4,-4.9 z m -5.9,9.3 2.6,-0.2 c -0.3,4.2 -1.4,6.4 -3.3,6.6 l -1.4,0.1 c 1.5,-2.8 2.2,-5 2.1,-6.5 z m -4.2,12.8 1.2,-0.1 0.1,1.3 -2.3,4 -2.6,0.2 -0.1,-1.3 c 2.7,-0.2 3.9,-1.6 3.7,-4.1 z m -4.2,11.6 -0.9,6.4 -1.2,0.1 -0.5,-6.3 z M 627,306.6 c -1.7,8.4 -3.5,12.7 -5.4,12.9 l -0.1,-1.1 c -0.3,-4.2 1.5,-8.2 5.5,-11.8 z m -7.9,16.9 0.1,1.1 c 0.2,1.8 -0.6,2.8 -2.4,2.9 l -0.1,-1.3 c -0.1,-1.3 0.7,-2.2 2.4,-2.7 z m -2.2,35.2 4,-0.3 0.1,1.3 c -0.9,0.1 -2.3,0.6 -3.9,1.5 l -2.6,0.2 c -0.1,-1.4 0.7,-2.3 2.4,-2.7 z M 729.2,324 c -22,10.9 -35.1,18.3 -39.2,22.1 -24,8.4 -35.9,13.6 -35.7,15.7 -21.3,8.5 -35.3,14.6 -41.9,18.5 -1.6,0.1 -3.9,-0.5 -6.9,-1.9 -0.4,-4.3 1.6,-7.8 5.8,-10.4 3.8,-0.3 7.4,0.2 10.7,1.6 4,-2 10.9,-4.2 20.7,-6.7 l -0.2,-2.5 -8.2,0.6 c 1,-1.4 8.7,-5 23,-10.8 l 4,-0.3 0.1,1.1 c -6.8,0.6 -10.6,2.6 -11.4,6.2 0.1,1.6 1.1,2.4 2.8,2.2 5,-3.3 7.4,-5.2 7.4,-5.8 9.6,-1.7 36.2,-15.7 79.9,-41.9 l 0.2,2.5 c 0.1,1.1 -3.6,4.3 -11.1,9.8 z m -67,22 c 6.5,-0.6 12,-3.1 16.6,-7.5 1.7,-0.2 2.7,0.6 2.8,2.2 -3,0.3 -8.9,2.8 -17.8,7.6 l -1.4,0.1 z m 108.2,-83.1 -33.3,26.8 c -24.9,16.3 -38.4,24.5 -40.5,24.7 -39.6,21.8 -64.2,33.1 -73.9,33.9 l -1.4,0.1 c 1.2,-4.5 18.9,-40.6 53.1,-108.4 14.9,-1.3 38.5,-8.4 70.9,-21.2 l 8.1,-0.7 c 16.3,-1.4 28.5,1.8 36.5,9.5 l 0.4,4.9 c -6.1,17.2 -12.7,27.3 -19.9,30.4 z m -65.4,-36.8 5.2,-0.5 0.1,1.3 -5.2,0.5 z m 75.7,-12.9 4,-0.3 c 3.7,1.8 5.6,3.4 5.7,4.7 l 0.1,1.1 c -3.5,0.3 -6.8,-1.5 -9.8,-5.5 z m 10.5,-60.9 c -3.5,4.2 -13,11.4 -28.5,21.4 -5.2,0.5 -24.4,7.9 -57.6,22.3 -1.6,-0.6 -3.4,-0.8 -5.3,-0.7 l -0.2,-2.5 c -0.4,-4.8 1.7,-10.8 6.3,-18.1 2.6,-13.8 5.5,-21.5 8.5,-23.3 L 742.3,89 c -0.3,-3.7 5.6,-6.7 17.6,-9 l 4,-0.3 0.3,3.8 c 11.8,-1.9 19.2,-3 22.2,-3.3 22,-1.9 33.5,2.5 34.4,13.3 l 2.6,-0.2 -0.5,-6 2.6,-0.2 c 6.4,3.5 9.8,7.7 10.2,12.7 0.3,3.6 -1.5,8 -5.3,13.1 -1.7,0.2 -2.7,-1 -2.9,-3.6 l -2.6,0.2 -0.8,7.5 c -11.1,16.9 -19.2,25.6 -24.3,26 -4.5,6.1 -7.3,9.2 -8.6,9.3 z m 11.7,41.6 -0.3,-3.8 2.6,-0.2 5.6,3.4 c 0.1,1.6 -0.7,2.5 -2.4,2.7 -2.4,-1.5 -4.2,-2.2 -5.5,-2.1 z m -465.5,242.9 -2.6,0.6 -2.2,1.9 c 0.4,1.6 1.4,2.2 3.1,1.8 1.7,-0.4 2.4,-1.4 2,-3 z m -9.9,-19.7 0.3,1.3 c 1.7,-0.4 2.4,-1.4 2,-3 l -0.3,-1.3 c -1.6,0.4 -2.3,1.4 -2,3 z m 70.4,-167.5 3,-0.7 -0.6,-2.6 -3,0.7 z m 907.4,76.2 c -30.4,6.8 -34.2,5.6 -40.6,6.1 l 0.2,2.5 2.8,-0.2 1.5,-0.1 -0.4,-0.3 3.3,-1.3 c 30.1,-3.3 33.6,-2.1 33.3,-5.5 z m -163.7,21.7 0.2,2.5 h 0.4 l -0.2,-2.5 z m -18.8,-65.9 -2.7,-0.9 c -2.2,5.9 -3.3,9.4 -3.2,10.4 l 0.1,1.1 c 2.1,-0.1 4,-3.7 5.8,-10.6 z m 188.7,43.7 0.2,2.5 4.4,0.8 -0.2,-2.5 z m -206.9,25.3 -6.8,-0.8 -1.2,2.6 0.1,1.3 40.5,-3.4 -0.2,-2.5 z m -18.4,-88.7 -0.1,-1.3 -1.4,0.1 -2.5,1.6 1.4,2.4 c 1.9,-0.2 2.8,-1.1 2.6,-2.8 z m 244.5,45 1.9,-0.2 c 1.1,-0.1 1.6,-1 1.5,-2.6 l -1.1,-2.4 c -6.9,0.6 -10.1,0.9 -15.7,4 l -0.1,-1.3 -8.3,0.8 c -0.2,-2.5 -0.9,-3.8 -2,-3.7 l -4.3,0.4 c -5,0.4 -7.4,0.2 -9.9,2.1 -0.1,-0.9 -0.4,-1.3 -0.9,-1.3 l -4.8,0.4 -2.8,1.6 c -0.1,-0.9 -0.4,-1.3 -0.9,-1.3 l -1.7,1.5 -0.1,-1.3 -6.7,-0.5 -1.6,0.1 0.2,2.5 3.4,0.9 3.2,-0.2 c 1.1,0.7 2.3,0.9 3.7,0.8 l 2.8,-1.4 0.1,1.1 c -15.7,3.9 -15.6,3.2 -26.4,5 -1.2,-0.8 -2.1,-1.2 -2.7,-1.1 l -0.2,0.2 c -1.2,-0.1 -1.9,-0.9 -2,-2.2 l 5.6,-0.7 c 0.4,0 0.7,0.4 3.8,1 4.5,-2.2 4.7,-3.1 7.1,-3.3 l -0.2,-2.5 c -15.4,3 -9.2,1 -28.5,2.7 l -0.9,0.1 -0.2,-2.5 c 24.8,-3 16.5,-1.3 25,-3.7 0.1,0.9 0.4,1.3 0.9,1.3 1,-1 2.1,-1.5 3.4,-1.7 l 1.7,-0.1 c 8.7,-0.7 11.6,1 28.8,-3.8 l 0.1,1.1 2.8,-1.4 2.6,-0.2 c -0.2,-2.5 3.6,-2.9 4.9,-3 l -0.2,-2.7 c -30.2,6.1 -38.1,4.4 -46.5,6.8 l -0.1,-1.1 c -7.9,1.4 -8.2,0.8 -10.2,0.9 -0.6,0.1 -1.5,0.6 -2.5,1.6 -0.1,-0.9 -0.4,-1.3 -1,-1.3 -0.3,0 -0.4,0.1 -0.5,0.1 l -25.6,4.2 c -0.1,-0.7 -0.4,-1.1 -1,-1 -13.3,2.8 -9.7,3.3 -27.5,4.9 -0.8,0.1 -1.9,0.5 -3.3,1.4 -0.1,-0.7 -0.5,-1.1 -1.4,-1 l -10.9,0.9 -7.3,1.8 c -0.1,-0.7 -0.5,-1.1 -1.4,-1 -4.1,1.1 -7.7,1.8 -10.6,2 h -0.2 c -1.8,0.2 0.9,-0.5 -0.5,-1.1 l -2.2,1.3 c -3.2,0.3 -1.5,-0.2 -12.5,-0.1 -19.3,2.4 -17.2,2.7 -19.3,2.8 l -7.2,-0.5 c 0.1,0.7 -0.3,1.2 -1.1,1.2 -8.2,-1.1 -12.4,-2.4 -12.5,-3.9 1.1,-7.8 3,-11.8 5.7,-12 l 1.4,-0.1 -1.2,2.6 1.4,-0.1 c 2.6,-1.4 3.8,-2.7 3.7,-3.9 l -0.2,-2.7 -2.6,0.2 -0.2,-2.5 c -0.2,-1.9 0.1,-3.6 0.8,-5 l 5.9,-9.5 0.2,2.5 2.8,-0.2 -0.2,-2.5 -1.6,-2.3 c 2.1,-1.8 3.7,-2.8 5,-2.9 l -0.1,-1.3 -3.8,0.3 -0.3,-3.8 c 7.6,-15.8 11.2,-25 11,-27.6 l 2.7,1.1 c 1.7,-0.1 2.5,-1.1 2.4,-2.9 l -2.6,0.2 -0.1,-1.1 c -0.2,-1.9 0.2,-3.7 1,-5.3 4.1,-4.3 6,-8.6 5.6,-13.1 0.8,-0.1 1.2,0.3 1.3,1.2 3.5,-2 6.2,-7.3 8.2,-16.1 6.2,-11.2 15,-33.6 26.5,-67.1 22,-59.2 21.1,-65.5 24.2,-79.5 l -2.6,0.2 c 0.2,1.8 -0.2,3.5 -1,5.1 -1.8,-0.7 -3.2,-1.1 -4.2,-1 l -0.1,-1.1 c -0.4,-5.1 1.7,-11.2 6.5,-18.4 l 1.2,-0.1 2.2,8.6 2.6,-0.2 c -0.1,-0.6 0.6,-4 2,-10.3 -0.1,-1.3 -1.1,-2.1 -3.1,-2.2 l -2.5,1.6 c -0.2,-1.8 -0.1,-6.5 0.2,-14 l -1.3,0.1 c -2.2,-2.2 -3.3,-4 -3.4,-5.5 l -14.3,1.4 c -0.1,-1 -0.6,-2.5 -1.6,-4.4 -0.1,-1.3 3.1,-2.6 9.7,-3.9 l 2.9,1.1 2.7,-1.6 c 0.1,0.9 0.6,1.3 1.6,1.2 l 2.7,-1.6 c 0.1,0.9 0.6,1.3 1.6,1.2 l 1.3,-0.1 -0.2,-2.9 c -2,0.2 -7.3,0.2 -15.7,-0.1 l -2.7,1.8 -0.1,-1.6 c -67.1,5.5 -105.2,8.6 -114.3,9.5 -1.2,0.1 -5.9,0 -14.2,-0.2 0.1,1.1 -0.9,1.7 -2.9,1.9 l -2.9,-1.3 -9.8,2.5 c -2.3,0.2 -6.2,0.1 -11.6,-0.5 -1.5,1.2 -3.3,1.9 -5.5,2.1 -1.2,0.1 14.3,-0.8 28.7,-1.8 -1.5,1.2 -3.8,1.9 -7,2.2 -2.2,0.2 -4.1,-0.1 -5.7,-1 -2.2,1 -9.3,2.6 -21.2,5 l -2.9,-1.1 -46.8,7.2 c -1.8,-0.9 -3.9,-1.2 -6.3,-1 -2.5,0.2 -6.7,1.1 -12.5,2.7 l -22.6,9.4 1.7,2.8 c 1.1,-0.1 2.7,-0.7 4.6,-1.8 l 8,0.7 -1,7.5 c -7.4,3.3 -11.7,8.2 -12.9,14.4 -11.1,4.9 -16.6,8.4 -16.6,10.5 l 0.1,1.3 1.7,-0.1 3,-1.6 3.5,4.2 0.5,5.8 c 0.2,1.8 -18.5,41.1 -55.9,117.9 -32.4,74 -49.4,114.5 -51,121.8 -11.1,3.1 -17.5,7.6 -19.4,13.6 0.2,1.9 3.5,3.2 9.9,3.7 l 0.3,2.9 -2.9,4.8 0.5,5.8 c 0.3,3 8.4,5.3 24.3,6.9 -0.1,-1 0.4,-1.6 1.5,-1.7 0.3,3.6 -0.7,10.6 -3,21 l 1.7,-0.1 c 6.6,-9 9.7,-15.2 9.4,-18.6 l 1.4,-0.1 c 1.6,-0.1 3.3,1.7 5.3,5.6 -2,0.8 -9,16.7 -21,47.8 l 1.7,2.8 1.7,-0.1 c 14.7,-37.2 23.9,-57.8 27.7,-61.7 19.3,-1.7 52.7,-5.1 100.1,-10.2 l 3,-1.8 c 0.1,1 0.7,1.5 1.8,1.4 l 3.1,-0.3 3,-1.8 c 0.1,1 0.7,1.5 1.8,1.4 l 35.9,-3.1 c 9.5,-0.8 14,-3.7 13.6,-8.6 -0.1,-1.3 5.5,-2.8 16.8,-4.4 1.1,-0.1 2.7,0.2 4.9,0.9 -0.1,-0.9 5.6,-1.8 17,-2.8 0.3,-6 2.2,-9.2 5.6,-9.5 l -0.3,-2.9 c -3.2,0.3 -6.8,1.1 -11,2.5 -7.5,-0.4 -12.3,-1 -14.3,-1.7 -2,1.1 -3.5,1.7 -4.6,1.8 l -25,0.8 -3,1.6 c -0.1,-0.9 -0.7,-1.3 -1.8,-1.2 l -1.4,0.1 -3.2,1.6 c -0.1,-0.9 -2.7,-1.6 -7.9,-2.3 l -3.2,1.9 -6.2,0.5 -0.1,-1.6 c 32.2,-3.5 48.1,-7.9 47.7,-13.1 2.1,-0.2 3.2,0.8 3.4,2.9 l 9.4,-2.4 -0.3,-2.9 -77.1,2.1 c 0.1,1 -0.4,1.6 -1.5,1.7 l -9.4,-0.8 c -2.4,0.2 -4.4,0.9 -6,2.1 l -3.5,-1.3 c -9.7,0.8 -16.9,2 -21.7,3.5 -6.6,-0.5 -13.9,-0.4 -22,0.3 l -17.3,1.5 -8,-0.9 c -0.4,-5.1 9.5,-30.2 29.9,-75.2 5.9,-15.2 11.3,-24.7 16.5,-28.3 1.1,-0.1 2.7,0.3 4.9,1.2 l 12.3,-4.2 6.3,1 c 10.6,-0.9 22.9,-3.9 37,-9.1 3.5,-0.3 6.1,-0.1 8,0.7 l 9.4,-2.2 28,-2.4 c 11.9,-1 24.8,-3.6 38.8,-7.9 l -0.3,-2.9 c -5.2,0.5 -7.9,-0.4 -8.1,-2.5 -0.3,-3.9 -4.1,-5.5 -11.4,-4.9 l -0.3,-2.9 7.7,-2.2 20.2,-1.7 -0.3,-2.9 c -0.8,0.1 -4.9,0 -12.5,-0.3 l -0.3,-3.1 7.8,-0.7 c 2.1,-0.2 3,-1.2 2.8,-3.2 -10.5,0.3 -15.8,-0.2 -15.9,-1.6 -73.2,3.6 -109.9,4.3 -110.1,2 -1.1,0.1 -2.6,0.8 -4.6,2 l -1.9,-3 c 19.4,-41.2 30.8,-62 34.1,-62.3 0.1,1.6 -0.7,4.2 -2.5,7.7 l 0.1,1.3 3.1,-0.3 C 980,88.5 986.5,79 991.9,78.6 c 23,-2 -3.2,-3.5 46,-11.2 2,0.9 3.4,1.3 4.4,1.2 19.3,-3.9 46.2,-8 80.7,-12.2 l -0.2,-2.9 -18.4,1.7 -0.2,-2.9 c 2.2,-0.2 4,-0.9 5.5,-2.1 l 0.1,1.6 c 1,-0.1 2.4,-0.8 4.2,-2 3.2,-0.3 5.6,0 7.3,0.9 6.4,-1.7 11.6,-2.7 15.4,-3.1 l 11.5,-1.1 c 2.8,-1.8 4.1,-3.4 4,-4.9 l -0.1,-1.3 c -2.9,0.3 -6.2,0.1 -10.1,-0.6 -0.1,-1.6 0.7,-2.7 2.6,-3.2 l 21.4,-2 9.8,-2.5 c 0.1,1.1 0.6,1.5 1.4,1.5 1,-0.1 2.4,-0.8 4.2,-2 0.5,0.1 1.1,0.1 1.6,0.2 -1.3,2.7 -2.8,6.6 -4.3,11.7 l -2.8,0.2 c -0.2,-1.9 -0.7,-3.6 -1.6,-5.1 l -1.4,0.1 c -26,72.4 -37.6,106.1 -61.6,161.7 -4.4,14.2 -8.1,22.1 -11.3,23.8 0.1,1.6 1.1,2.4 2.8,2.2 0.6,7 -1,13.9 -4.9,20.7 -11.1,32 -18.5,49.5 -22.3,52.7 l 2.5,15.1 c 0.1,1.6 -0.7,2.5 -2.4,2.7 l -2.6,0.2 c -0.4,-4.2 -1.9,-6.2 -4.6,-5.9 l -1.4,0.1 c -3.4,5.3 -6,11.4 -7.7,18.5 l 2.6,-0.2 c 3.5,-2.3 5.1,-5 4.8,-8.1 l 5.2,-0.5 3,1.1 c -2.4,3.8 -3.5,6.8 -3.3,9.1 l 1.4,2.4 -3.4,8 0.1,1.3 c 3,-0.3 6.3,0.7 9.8,2.8 2.4,-0.2 5,-1.3 7.9,-3.2 3,-0.3 14.2,-0.4 33.5,-0.4 l 9.7,-3.3 c 11.8,-0.1 13.7,0.2 23.9,-0.7 l 4.2,-0.4 2.2,-1.5 0.1,1.3 c 10.7,-0.9 11.4,-0.2 19.8,0.8 l 0.1,1.3 -5.9,0.5 0.2,2.5 c 1.8,-0.2 3.4,-0.7 4.7,-1.8 1.5,-0.1 2.4,0.7 2.5,2.5 -2.4,0.2 -5.1,0.8 -8.1,1.8 l -2.6,-0.9 c -4.1,1.1 -3.2,1.4 -6,1.6 l -4.1,-0.8 c 0.1,0.7 -0.3,1.2 -1,1.2 0.1,1.6 1,2.4 2.5,2.3 l 4.2,-0.4 21.9,-1.9 8.3,-1.8 c 0.1,0.7 0.4,1.1 1.1,1 l 4,-1.5 7.5,-0.6 c 5.8,-0.5 5.7,-0.9 18.3,-2.9 -0.1,-0.8 0.2,-1.1 0.8,-1.2 l 0.1,1.1 c 20.5,-3.5 21.8,-3.7 25.1,-4.8 l 0.3,0.6 c 5.1,-1.2 2.2,-0.9 3.6,-1.9 0.1,0.9 0.4,1.3 0.9,1.3 l 3.6,-0.3 -0.2,-2.7 -7.3,-0.1 -0.1,-0.2 c -0.3,0.1 -0.5,0.1 -0.8,0.2 h -1 v 0.2 c -4.9,1 -5,0.3 -8.2,0.6 l -18.3,1 -0.1,-1.3 10.2,-1.4 3.7,-0.3 2.1,-1.5 0.1,1.3 c 14.4,-1.2 19.5,2.4 86.1,-11.8 3.6,-0.3 3.3,-3.3 5.6,-9.5 -1.2,0.1 -2.4,-0.2 -3.5,-0.8 -5.5,2.1 -8.4,1.1 -19,2.8 -0.9,0.1 -1.6,-0.7 -1.9,-2.3 l -0.1,-1.1 10.2,0.3 c 1.9,-0.2 5.6,-0.5 11.1,-3.6 0,0.9 -2,1.4 -0.8,1.3 z m -492.4,7.9 -4.7,0.4 c -0.2,-1.9 2.3,-9.1 7.5,-21.4 l 3.1,-0.3 c 0.1,2.9 -1.8,10 -5.9,21.3 z m 5.7,-22.8 -0.1,-1.3 c -0.1,-1.6 0.9,-2.7 3.1,-3.2 l 0.1,1.3 c 0.1,1.9 -0.9,3 -3.1,3.2 z m 62.5,48.3 0.1,1.3 -7.8,0.7 -0.1,-1.3 z m -9.4,-0.8 c 0.1,1.6 -2.3,3.4 -7.5,5.2 l -9.6,-0.7 -3.1,0.3 -0.3,-2.9 z m 63.2,-290.9 -4.7,0.4 -0.1,-1.6 c -0.1,-1.6 0.8,-2.7 2.8,-3.2 l 1.7,-0.1 3.2,1.3 c 0.1,1.9 -0.8,3 -2.9,3.2 z m 71.5,-14 1.5,-0.1 0.2,2.9 -4.3,0.4 c -0.1,-1.6 0.7,-2.7 2.6,-3.2 z m -18,6.3 -7.1,-0.8 -0.1,-1.3 c 9.3,-0.8 12.4,-1.8 18.1,-3.4 0.1,1.1 1.1,1.5 2.9,1.3 l 0.2,2.9 -2.8,0.3 c -2.2,0.2 -4.1,-0.1 -5.7,-1 -1.7,1.1 -3.5,1.8 -5.5,2 z m 8.9,25.9 -0.1,-1.3 11.5,-1.1 0.1,1.3 z m 12.3,-10 -0.1,-1.6 5.6,-0.5 0.1,1.6 z m 1.3,-19.6 -1.5,0.1 1.3,-3.1 12.8,-1.2 0.1,1.6 c -3.3,0.3 -7.6,1.2 -12.7,2.6 z m 6.5,27.6 -0.2,-2.9 5.6,-0.5 c 1.9,-0.2 2.9,0.7 3,2.7 z m 33.9,-46.2 -7.2,2 -1.3,0.1 c -3.4,0.3 -7.8,0.2 -13,-0.3 9.3,-0.6 18.2,-1.3 21.5,-1.8 z m -7.7,32 0.1,1.3 -9.9,0.9 -0.1,-1.3 z m 16.2,7.7 c -0.1,-1.2 -2,-2 -5.9,-2.4 l -9.9,2.8 -7.6,0.3 c -1.7,-1.2 -2.6,-2 -2.7,-2.6 l 8.8,0.5 19.8,-3.2 10.1,0.4 0.1,1.6 c -5,0.5 -9.2,1.4 -12.7,2.6 z M 1187.1,32 c 1.2,0.1 2,0.1 2.3,0.1 3.5,-3.4 7.4,-6.1 11.9,-8 -3.6,15.8 -9.2,27.5 -16.9,35.1 l -5.6,-3.4 c 4.7,-11.9 7.5,-19.8 8.3,-23.8 z m -17.2,29.5 1.4,-0.1 c -1.9,3.6 -3.6,5.5 -5,5.6 l -0.3,-3.8 c 0.9,0 2.2,-0.6 3.9,-1.7 z M 1158.8,88 c 2.7,-10.8 5.3,-16.9 7.7,-18.5 l 0.1,1.3 c -1.4,10 -3.6,15.3 -6.5,15.7 l 0.5,6.3 c -2.4,3.4 -3.5,6 -3.4,8 l -1.4,0.1 -0.8,-8.7 c 1.6,-0.2 2.9,-1.6 3.8,-4.2 z m -4.3,14.4 c 0.1,1.5 -0.9,5 -2.9,10.4 l -1.4,0.1 -0.3,-3.8 c 1.9,-4.4 3.5,-6.6 4.6,-6.7 z m -80.7,234.2 -0.1,-1.1 2.6,-0.2 0.3,3.8 c -1.4,0.1 -2.4,-0.7 -2.8,-2.5 z m 115.3,3 c -0.1,-0.9 -0.5,-1.3 -1.4,-1.2 l -6.5,0.6 -0.1,-1.3 h 0.6 l 15.4,-1.3 0.1,1.3 c -4.5,0.2 -7.2,0.9 -8.1,1.9 z m -7.7,-3.2 c 0.6,0.3 0.3,0.6 0,0.8 -0.3,-0.1 -0.7,-0.4 0,-0.8 z m 0.8,-18 -8.6,0.7 -0.1,-1.3 7.8,-0.7 6.8,-1.7 c 0.1,0.8 0.5,1.1 1.4,1 8.1,-1.4 7.3,-1.8 11.2,-2.1 1.3,-0.1 2.1,0.7 2.2,2.3 z m 30.1,-2.6 c -4.8,-0.5 -5.1,-0.9 -8.5,-0.6 l -0.1,-1.1 7.7,-0.7 0.1,1.1 c -0.8,0.1 2.1,0.3 0.8,1.3 z m 0.6,-1.4 -0.1,-1.1 4.2,-0.4 0.1,1.1 z m 9.3,-0.8 -0.1,-1.1 c 0.7,-0.1 1.7,-0.6 3,-1.6 2.1,-0.2 3.2,1.2 3.4,2.8 z m 11.9,-1.5 -0.1,-1.3 5.1,-0.4 0.1,1.3 z m 7.1,-0.6 c -0.1,-1.5 0.5,-2.4 1.8,-2.6 l 1.7,2.2 c -0.1,-0.7 0.2,-1.1 0.8,-1.2 l 1.3,2.4 z m -75.5,32.6 -0.2,-2.5 -0.8,0.1 0.2,2.5 z m 175.7,-45.5 c 0.8,-0.5 1.2,-1 -0.7,-1.3 -0.9,1 1,1.3 -1,1.4 l 0.1,0.9 c 0.2,-0.2 0.7,-0.5 1.1,-0.8 l -1.1,0.9 v 0.1 l -2.1,2.7 4.2,-1.5 h 0.5 l -0.2,-2.5 z m 7.3,5.7 -0.8,0.1 0.2,2.5 5.9,-0.5 c -0.1,-1.6 -4,-2.1 -5.3,-2.1 z m -9.1,-4.4 0.1,-0.1 v -0.1 c 0,0 -0.1,0.1 -0.1,0.2 z" />
  <path
     style="fill:#f9dc3e"
     id="path218"
     d="m 955.7,114.8 0.1,1.6 3.3,-0.3 c -0.1,-1 0.3,-2.6 1,-4.6 l -0.3,-2.9 c -1.4,0.1 -2.8,2.2 -4.1,6.2 z m -31.6,-76 -0.3,-2.9 -4.7,0.4 0.3,2.9 z m -91.7,171.7 c -0.2,-2.7 -8.6,-13.2 -25.2,-31.7 -0.3,-3.4 5.4,-8.5 17.1,-15.2 l 33.4,-29.1 c 7.5,-9.5 11.9,-24.9 13.2,-46.3 l -0.4,-4.9 C 869.2,68.5 858.5,56.6 838.2,47.5 826.2,39.4 804.6,34.9 773.4,34.1 747.6,36.3 713.9,45.5 672.4,61.8 661,70 648,78.2 633.4,86.4 l 0.2,2.5 c 0.9,-0.1 2.3,-0.6 3.9,-1.7 1.7,-0.2 2.7,0.6 2.8,2.2 l 2.5,-1.3 1.2,-0.1 0.1,1.1 c 0.1,1.3 -8.9,8.4 -27.1,21.1 l 1.4,2.6 -1.2,0.1 -3,-1.1 c 0.1,0.9 -1.2,1.5 -3.7,1.7 l 0.1,1.1 2.9,3.6 c -0.9,0.1 -2.3,-0.3 -4.2,-1 -4.2,0.4 -8.3,2.6 -12.4,6.8 l 1.7,-7.4 C 604.7,90.3 608.9,67 611.1,46.8 l -0.3,-1.3 c -4.2,-2.7 -8.3,-6.5 -12.1,-11.3 0.1,-3.1 0.1,-4.9 0,-5.3 l -0.3,-1.1 -1.2,0.3 c -13.2,19.8 -38.6,53.6 -76.3,101.4 -28.7,34 -43.5,52.9 -44.4,56.7 -11.7,12.1 -17.3,19.4 -16.7,21.9 -3.1,2 -4.4,4 -3.9,6.2 -0.9,0.2 -1.5,-0.1 -1.7,-1 -5,8.1 -12.4,13.3 -22.3,15.6 l -10.4,2.4 c -1.4,0.3 -2.1,1.3 -2,3 l 0.3,1.3 3.9,-0.9 0.3,1.1 -8.8,3.4 -15.6,3.6 -8.2,0.5 c -1.2,1.2 6.5,-0.1 3.5,0.6 l -10.2,2.4 c -6.2,1.4 -9.6,0.9 -10.2,-1.6 l -1.2,0.3 c 0.2,1.1 0.3,1.9 0.1,2.6 l -0.6,-2.5 -8.2,1.9 c -0.6,-3.8 -11.7,-17.6 -33.2,-41.4 -0.4,-4.6 7.2,-11.3 22.7,-20 l 43.8,-38.5 c 9.8,-12.6 15.6,-32.8 17.5,-60.6 L 414.8,80 C 413.1,60.4 398.9,44.6 372.2,32.4 356.4,21.7 328,16 287,15.1 253,18 208.6,30.1 154,51.2 139,62.1 121.9,72.9 102.7,83.6 L 103,87 c 1.3,-0.1 3,-0.8 5.1,-2 2.2,-0.2 3.4,0.8 3.6,2.8 l 3.4,-1.9 1.7,-0.1 0.1,1.6 C 117,89 105.1,98.3 81,115.3 l 1.9,3 -1.7,0.1 -3.7,-1.3 c 0.1,1 -1.6,1.7 -5.1,2 l 0.2,1.8 4,4.4 c -1.3,0.1 -3.1,-0.3 -5.4,-1.1 -7.8,0.7 -15.4,6.3 -22.9,16.9 l 1.9,3 c 6.5,-6 10.3,-9 11.4,-9.1 l 0.4,4.9 c -1.1,0.1 -2.8,0.8 -5.1,2 l 4.1,6.2 c 7.9,-8.5 16.6,-15.8 26.1,-21.9 4.7,1.2 7.2,2.7 7.3,4.3 l 3.6,-0.3 c 25.8,-19.1 51.3,-32.9 76.6,-41.4 l 0.3,3.4 c -4.7,7 -7.9,10.6 -9.6,10.8 0.2,2.4 1,4.5 2.5,6.3 0.4,4.3 -11.1,33.3 -34.4,86.9 C 80.5,320.8 36.1,413 0,472.6 c 0.1,1.2 0.8,2.8 2.1,4.8 8.9,-2.1 14.5,-4.3 16.9,-6.4 l 1.9,-0.2 0.3,3.4 3.3,-0.3 3.4,-1.9 c 0.1,1 1.2,1.5 3.5,1.3 l 0.3,3.4 c 0.3,3.3 -1.6,8.3 -5.6,15.2 -3.6,4.1 -7.5,12.7 -11.6,25.8 l 0.1,1.6 3.3,-0.3 c 14.4,-16.1 25.3,-31.9 32.8,-47.3 42,-12.3 74,-24.4 96.2,-36.3 22.3,-1.9 39.3,-7.8 50.9,-17.5 l -0.2,-1.8 -8.4,2.5 -1.9,0.2 -0.2,-1.8 c 16.4,-2.5 27.7,-6.1 34,-11.1 31.9,-24.6 56,-42 72.3,-52.3 33.5,-24.6 55.3,-48.6 65.2,-71.9 1.8,-0.4 3.6,-0.8 5.6,-1.3 4.7,-0.2 7.3,-0.3 8,-0.5 -0.2,-0.9 0.2,-1.4 1.1,-1.6 7.5,-0.8 3.9,0.5 8.7,-0.6 l 12.6,-2.9 2.1,-0.5 -1,0.6 c 1.4,0.2 2.9,0.1 4.6,-0.3 l 0.9,3.7 -57.3,91.1 -12.7,15.9 -6.2,20.8 1.2,-0.3 6.2,-2.6 -2,8.1 0.6,2.4 1.7,2.1 c -0.8,0.2 -1.1,0.7 -0.9,1.6 l 0.3,1.3 2.6,-0.6 c 3.8,-3.3 5.4,-6.3 4.8,-9 4.1,0.7 6.8,1 8.2,0.6 l 0.3,1.3 c -2.5,0.6 -3.8,2.6 -4,6 l 0.3,1.3 1.4,-0.3 c 20.8,-22.7 71.8,-100.4 112.7,-153.1 -1.3,-5.7 20,-13.6 64,-23.8 l 1.4,-0.3 c 1.6,6.9 -1.8,23.6 -10.2,50.1 -5.4,16 -8,24.8 -7.6,26.2 -7,21.3 -10.3,32.8 -9.9,34.6 l -15.6,51.1 c -10.1,26.2 -17.8,53.7 -23.2,82.7 0.9,-0.2 2.3,-0.1 4.3,0.4 l 2.2,-1.9 c 0.2,0.9 0.8,1.2 1.7,1 l -0.9,-3.7 6.8,-0.2 c 2,-0.5 3.7,-3 5.1,-7.6 -0.3,-6.9 1.1,-10.6 4.2,-11.4 4.2,-16.4 6.8,-24.6 7.7,-24.9 3.9,-16.3 6.8,-25.6 8.7,-27.9 5.9,-21.2 10.2,-32.1 13,-32.8 l 0.6,2.6 -4.3,11.1 c -7.5,33.3 -15.1,59.6 -22.8,78.9 l 2.2,9.6 1.4,-0.3 c 18.6,-40 45.4,-119.2 80.3,-237.6 1,-10.4 6,-18.5 14.9,-24.2 l -2,-2.1 -0.3,-1.1 c 4,-0.9 6.8,-2.5 8.4,-4.7 -0.2,-0.9 -3.7,-2.2 -10.5,-4 l 17.4,-74.6 c 3.8,-3.4 6,-5.2 6.7,-5.2 l 0.3,3.8 c -0.9,0.1 -2.3,0.6 -3.9,1.7 l 3.3,4.7 c 6,-6.5 12.5,-12.1 19.6,-16.8 3.6,1 5.4,2.2 5.6,3.4 l 2.6,-0.2 C 649.4,107 668.8,96.6 687.9,90.3 l 0.2,2.5 c -3.5,5.3 -5.9,8 -7.2,8.1 0.2,1.8 0.7,3.4 1.6,4.8 0.3,3.3 -8.3,25.3 -25.9,66.1 -40.2,94.5 -73.9,164.4 -101.3,209.8 0.1,0.9 0.7,2.1 1.8,3.7 6.7,-1.6 11,-3.3 12.7,-4.9 l 1.2,-0.1 0.2,2.5 2.8,-0.2 2.5,-1.3 c 0.1,0.7 1,1 2.7,0.9 l 0.2,2.7 c 0.2,2.4 -1.2,6.2 -4.3,11.4 -2.9,3.1 -5.9,9.6 -9.1,19.5 l 0.1,1.3 2.6,-0.2 c 10.9,-12.2 19.2,-24.2 24.9,-36 31.9,-9.4 56.2,-18.5 73,-27.5 17.1,-1.5 30,-5.9 38.8,-13.3 l -0.1,-1.3 -6.5,1.9 -1.4,0.1 -0.1,-1.3 c 12.4,-1.8 21.1,-4.6 25.8,-8.3 24.2,-18.6 42.5,-31.9 54.9,-39.7 38.6,-28.1 56.6,-55.1 54.4,-81 z m -6.6,1.7 0.9,10.1 c -1.2,2.5 -2.5,3.8 -3.7,3.9 L 821.5,209 c 2.8,1 4.2,2 4.3,3.2 z m -757.2,-81.4 -1.7,0.1 -0.3,-3.1 6.9,-0.6 0.1,1.6 c -1.1,0.1 -2.8,0.7 -5,2 z M 34.9,467.9 c -4,-1.8 -7.6,-2.5 -10.7,-2.2 l -0.4,-4.9 c -0.2,-1.9 0.9,-3.2 3.3,-3.7 2.2,-0.2 3.5,1.4 3.7,4.6 5.8,-7.1 9,-10.7 9.6,-10.8 l 3.7,1.5 c -1.2,10 -4.3,15.1 -9.2,15.5 z M 395,91.2 c -1.7,0.2 -5.1,-5.1 -10,-15.6 l -0.3,-3.1 c 3.2,-0.3 6.5,4.9 10,15.6 z m -4.8,-37.3 -1.4,3.3 -48.9,-20.4 c 32.6,1.1 49.4,6.8 50.3,17.1 z m -206.5,177.3 -6.9,0.6 -0.3,-3.1 6.9,-0.6 z m -5.6,-106.5 1.7,-0.1 0.4,4.9 c -1.6,0.1 -3.7,2.5 -6.3,7.1 l -0.3,-3.4 c 3.1,-3.7 4.7,-6.5 4.5,-8.5 z m -14.5,34.2 0.6,6.5 -1.7,0.1 -0.6,-6.5 z m -7.6,12.2 3.3,-0.3 c -0.3,5.4 -1.8,8.3 -4.5,8.5 l -1.7,0.1 c 2.1,-3.6 3.1,-6.4 2.9,-8.3 z m -5.7,17 1.9,-0.2 0.1,1.6 -3.1,5.2 -3.3,0.3 -0.1,-1.6 c 3.3,-0.3 4.8,-2 4.5,-5.3 z m -5.6,15.3 -1,8.2 -1.7,0.1 -0.7,-8.1 z M 88.6,362.9 C 86.4,374.1 84,379.8 81.5,380 l -0.1,-1.6 c -0.6,-5.5 1.8,-10.7 7.2,-15.5 z m -10.3,22.3 0.1,1.6 c 0.2,2.2 -0.8,3.5 -3,3.6 l -0.1,-1.6 c -0.2,-1.9 0.8,-3.1 3,-3.6 z m -3,46.3 5.2,-0.5 0.2,1.8 c -1.3,0.1 -3,0.8 -5.1,2 l -3.3,0.3 c -0.2,-1.7 0.9,-3 3,-3.6 z m 148,-45.7 c -29.2,14.4 -46.4,24.2 -51.5,29.3 -31.6,11 -47.3,17.8 -47,20.5 -28.1,11.1 -46.6,19.3 -55.5,24.4 -2.1,0.2 -5.1,-0.6 -9.1,-2.4 -0.5,-5.7 2.1,-10.3 7.6,-14 4.9,-0.4 9.6,0.3 14.1,2.2 5.2,-2.7 14.3,-5.7 27.2,-8.9 l -0.3,-3.4 -10.4,0.9 c 1.3,-1.8 11.3,-6.5 30.1,-14.1 l 5.2,-0.5 0.1,1.6 c -8.9,0.8 -13.8,3.4 -14.9,8.1 0.2,2.1 1.4,3 3.6,2.8 6.7,-4.2 10,-6.7 9.9,-7.4 12.7,-2.4 47.8,-20.8 105.3,-55.1 l 0.3,3.1 c 0.1,1.5 -4.8,5.7 -14.7,12.9 z m -88.2,29 c 8.4,-0.7 15.6,-4.1 21.6,-10 2.4,-0.2 3.7,0.7 3.8,2.8 -4.1,0.4 -12,3.8 -23.5,10.4 l -1.7,0.1 z m 142.3,-109.3 -44.1,35 c -32.8,21.5 -50.4,32.3 -53,32.5 -52.2,28.7 -84.7,43.6 -97.3,44.7 l -1.9,0.2 c 1.6,-5.9 24.8,-53.4 69.8,-142.8 19.8,-1.7 51,-10.9 93.5,-27.7 l 10.4,-0.9 c 21.5,-1.9 37.6,2.3 48.2,12.3 l 0.6,6.5 c -7.9,22.9 -16.7,36.3 -26.2,40.2 z m -86.2,-48.5 7.1,-0.6 0.1,1.6 -7.1,0.6 z m 99.7,-16.9 5.2,-0.5 c 4.8,2.3 7.3,4.3 7.5,6.1 l 0.1,1.6 c -4.6,0.4 -8.9,-2 -12.8,-7.2 z M 305,159.8 c -4.6,5.5 -17.2,14.9 -37.8,28.1 -6.8,0.6 -32.1,10.4 -75.9,29.6 -2.2,-1 -4.5,-1.4 -7,-1.2 l -0.3,-3.1 c -0.5,-6.3 2.3,-14.2 8.5,-23.8 3.4,-18 7.1,-28.3 11.2,-30.8 l 36.5,-82.1 c -0.4,-5.1 7.4,-9 23.4,-11.7 l 5.2,-0.5 0.4,4.7 c 15.7,-2.4 25.5,-3.8 29.3,-4.1 29,-2.5 44.1,3.4 45.3,17.5 l 3.3,-0.3 -0.7,-8.3 3.6,-0.3 c 8.5,4.7 13.1,10.4 13.7,17.1 0.4,4.6 -2.1,10.3 -7.4,17.1 -2.2,0.2 -3.5,-1.4 -3.7,-4.6 l -3.6,0.3 -0.8,10 c -14.7,22 -25.4,33.3 -32,33.9 -6,8.3 -9.7,12.4 -11.2,12.5 z m 22.4,57.5 c -3,-2 -5.4,-2.9 -7.2,-2.8 l -0.4,-4.9 3.3,-0.3 7.3,4.3 c 0.3,2.3 -0.7,3.5 -3,3.7 z m 23.2,27.5 c 3.2,1.3 5.1,2.7 5.5,4 l -1.6,0.4 0.1,0.1 c -0.3,0 -0.7,0.1 -1,0.2 l -2.4,1.9 z m 2.2,13.8 -0.3,-1.3 4.2,-1 0.3,1.3 z m 10.1,11.3 c 4.3,-0.7 6.4,-1 14.4,-2.8 l 0.3,1.3 -15.2,3.5 c 0.2,-0.7 0.4,-1.4 0.5,-2 z m 14.8,6.3 c -6.4,0.6 -5,-0.2 -15.2,2.1 l -0.3,-1.3 12.8,-4.1 6.1,-1.4 0.6,2.4 c -2.8,0.6 -0.8,0.6 -4,2.3 z m 13.5,-3.2 c -1.5,0.4 -2.7,-0.3 -3.4,-2 l 3.9,-0.9 c 1.7,-0.4 2.8,0.3 3.2,2 z m 36.6,-39.4 -0.3,-1.3 6.3,-1.5 0.6,2.4 z m 39.1,239.8 c 0.4,-1.8 0.5,-3.1 0.3,-4 l 1.4,-0.3 c 1.7,-0.4 2.7,0.2 3.1,1.8 l 0.3,1.3 z m 27.4,-229.5 -2.8,-0.5 c -4.5,1.8 -8.3,3.1 -11.4,3.8 l -2.6,0.6 c -1.5,0.4 -2.7,-0.2 -3.3,-1.8 l 18.3,-4.2 6,-2.8 2,2.3 c -2.9,0.6 -5,1.5 -6.2,2.6 z m 14.1,-4.5 -0.3,-1.3 c 0.9,-0.2 2.1,-0.9 3.4,-2.2 l 13,-3 0.3,1.3 c -6.9,1.7 -12.4,3.4 -16.4,5.2 z m 2,-26.3 c -0.9,0.2 -2.1,1 -3.6,2.2 -0.2,-0.9 -2,-0.9 -5.4,-0.1 -0.6,-2.5 9,-6 28.9,-10.6 l 2.8,-0.6 0.6,2.4 c -14,4.1 -21.8,6.4 -23.3,6.7 z m 35,-37.8 c -1.4,15.9 -7,24.9 -16.9,27.2 l -0.3,-1.3 -8.8,3.4 -3.9,0.9 c -2,0.5 -3.8,0.4 -5.4,-0.1 l -0.8,-3.5 c -0.3,-1.3 12.4,-18.9 38.2,-52.7 l 3,0.5 c 1.1,4.6 -0.6,13.1 -5.1,25.6 z m 61.9,-53 -1.2,0.1 -0.2,-2.5 5.2,-0.5 0.1,1.3 c -0.9,0.2 -2.2,0.7 -3.9,1.6 z m -25.5,256.1 c -3,-1.4 -5.7,-2 -8,-1.8 l -0.3,-3.8 c -0.1,-1.3 0.7,-2.2 2.4,-2.7 1.7,-0.2 2.7,1 2.9,3.6 4.3,-5.5 6.7,-8.3 7.2,-8.3 l 2.7,1.1 c -1,7.6 -3.3,11.6 -6.9,11.9 z m 273.4,-286 c -1.3,0.1 -3.8,-3.9 -7.7,-12 l -0.2,-2.5 c 2.5,-0.2 5.1,3.7 7.7,11.7 z m -3.6,-28.6 -1.2,2.6 -37,-15.5 c 24.7,0.8 37.5,5.1 38.2,12.9 z m -156.9,134.7 -5.2,0.5 -0.2,-2.5 5.2,-0.5 z m -4.3,-80.9 1.4,-0.1 0.3,3.8 c -1.3,0.1 -2.9,1.9 -4.8,5.4 l -0.2,-2.5 c 2.3,-2.9 3.4,-5.1 3.3,-6.6 z m -10.9,26 0.4,4.9 -1.4,0.1 -0.4,-4.9 z m -5.9,9.3 2.6,-0.2 c -0.3,4.2 -1.4,6.4 -3.3,6.6 l -1.4,0.1 c 1.5,-2.8 2.2,-5 2.1,-6.5 z m -4.2,12.8 1.2,-0.1 0.1,1.3 -2.3,4 -2.6,0.2 -0.1,-1.3 c 2.7,-0.2 3.9,-1.6 3.7,-4.1 z m -4.2,11.6 -0.9,6.4 -1.2,0.1 -0.5,-6.3 z m -42.7,121.3 c -1.7,8.4 -3.5,12.7 -5.4,12.9 l -0.1,-1.1 c -0.3,-4.2 1.5,-8.2 5.5,-11.8 z m -7.9,16.9 0.1,1.1 c 0.2,1.8 -0.6,2.8 -2.4,2.9 l -0.1,-1.3 c -0.1,-1.3 0.7,-2.2 2.4,-2.7 z m -2.2,35.2 4,-0.3 0.1,1.3 c -0.9,0.1 -2.3,0.6 -3.9,1.5 l -2.6,0.2 c -0.1,-1.4 0.7,-2.3 2.4,-2.7 z M 724.7,316 c -22,10.9 -35.1,18.3 -39.2,22.1 -24,8.4 -35.9,13.6 -35.7,15.7 -21.3,8.5 -35.3,14.6 -41.9,18.5 -1.6,0.1 -3.9,-0.5 -6.9,-1.9 -0.4,-4.3 1.6,-7.8 5.8,-10.4 3.8,-0.3 7.4,0.2 10.7,1.6 4,-2 10.9,-4.2 20.7,-6.7 l -0.2,-2.5 -8.1,0.7 c 1,-1.4 8.7,-5 23,-10.8 l 4,-0.3 0.1,1.1 c -6.8,0.6 -10.6,2.6 -11.4,6.2 0.1,1.6 1.1,2.4 2.8,2.2 5,-3.3 7.4,-5.2 7.4,-5.8 9.6,-1.7 36.2,-15.7 79.9,-41.9 l 0.2,2.5 c 0,1 -3.7,4.2 -11.2,9.7 z m -67,22 c 6.5,-0.6 12,-3.1 16.6,-7.5 1.7,-0.1 2.7,0.6 2.8,2.2 -3,0.3 -8.9,2.8 -17.8,7.6 l -1.4,0.1 z m 108.2,-83.1 -33.3,26.8 c -24.9,16.3 -38.4,24.5 -40.5,24.7 -39.6,21.8 -64.2,33.1 -73.9,33.9 l -1.4,0.1 c 1.2,-4.5 18.9,-40.6 53.1,-108.4 14.9,-1.3 38.5,-8.4 70.9,-21.2 l 8.1,-0.7 c 16.3,-1.4 28.5,1.8 36.5,9.5 l 0.4,4.9 c -6.1,17.2 -12.7,27.3 -19.9,30.4 z m -65.4,-36.8 5.2,-0.5 0.1,1.3 -5.2,0.5 z m 75.7,-12.9 4,-0.3 c 3.7,1.8 5.6,3.4 5.7,4.7 l 0.1,1.1 c -3.5,0.3 -6.8,-1.5 -9.8,-5.5 z m 10.5,-60.9 c -3.5,4.2 -13,11.4 -28.5,21.4 -5.2,0.5 -24.4,7.9 -57.6,22.3 -1.6,-0.6 -3.4,-0.8 -5.3,-0.7 l -0.2,-2.5 c -0.4,-4.8 1.7,-10.8 6.3,-18.1 2.6,-13.8 5.5,-21.5 8.5,-23.3 L 737.8,81 c -0.3,-3.7 5.6,-6.7 17.6,-9 l 4,-0.3 0.3,3.8 c 11.8,-1.9 19.2,-3 22.2,-3.3 22,-1.9 33.5,2.5 34.4,13.3 l 2.6,-0.2 -0.5,-6 2.6,-0.2 c 6.4,3.5 9.8,7.7 10.2,12.7 0.3,3.6 -1.5,8 -5.3,13.1 -1.7,0.2 -2.7,-1 -2.9,-3.6 l -2.6,0.2 -0.8,7.5 c -11.1,16.9 -19.2,25.6 -24.3,26 -4.5,6.1 -7.3,9.2 -8.6,9.3 z m 11.7,41.6 -0.3,-3.8 2.6,-0.2 5.6,3.4 c 0.1,1.6 -0.7,2.5 -2.4,2.7 -2.4,-1.5 -4.2,-2.2 -5.5,-2.1 z m -465.5,242.9 -2.6,0.6 -2.2,1.9 c 0.4,1.6 1.4,2.2 3.1,1.8 1.7,-0.4 2.4,-1.4 2,-3 z m -9.9,-19.7 0.3,1.3 c 1.7,-0.4 2.4,-1.4 2,-3 l -0.3,-1.3 c -1.6,0.4 -2.3,1.4 -2,3 z m 70.8,-133 1.9,-1.2 c -0.4,0 -0.7,-0.1 -1,-0.2 -0.7,0.2 -1,0.7 -0.9,1.4 z m -0.4,-34.5 3,-0.7 -0.6,-2.6 -3,0.7 z m 706.7,101 -6.8,-0.8 -1.2,2.6 0.1,1.3 40.5,-3.4 -0.2,-2.5 z m 37,-3.1 0.2,2.5 h 0.4 l -0.2,-2.5 z m 169.9,-22.2 0.2,2.5 4.4,0.8 -0.2,-2.5 z m -6.2,0.5 c -30.4,6.8 -34.2,5.6 -40.6,6.1 l 0.2,2.5 2.8,-0.2 1.5,-0.1 -0.4,-0.3 3.3,-1.3 c 30.1,-3.3 33.6,-2.1 33.3,-5.5 z m -182.5,-44.2 -2.7,-0.9 c -2.2,5.9 -3.3,9.4 -3.2,10.4 l 0.1,1.1 c 2.1,-0.1 4,-3.7 5.8,-10.6 z m -36.6,-19.7 -0.1,-1.3 -1.4,0.1 -2.5,1.6 1.4,2.4 c 1.9,-0.2 2.8,-1.1 2.6,-2.8 z m 79.5,82.2 -0.2,-2.5 -0.8,0.1 0.2,2.5 z m 165,-37.2 1.9,-0.2 c 1.1,-0.1 1.6,-1 1.5,-2.6 l -1.1,-2.4 c -6.9,0.6 -10.1,0.9 -15.7,4 l -0.1,-1.3 -8.3,0.8 c -0.2,-2.5 -0.9,-3.8 -2,-3.7 l -4.3,0.4 c -5,0.4 -7.4,0.2 -9.9,2.1 -0.1,-0.9 -0.4,-1.3 -0.9,-1.3 l -4.8,0.4 -2.8,1.6 c -0.1,-0.9 -0.4,-1.3 -0.9,-1.3 l -1.7,1.5 -0.1,-1.3 -6.7,-0.5 -1.6,0.1 0.2,2.5 3.4,0.9 3.2,-0.2 c 1.1,0.7 2.3,0.9 3.7,0.8 l 2.8,-1.4 0.1,1.1 c -15.7,3.9 -15.6,3.2 -26.4,5 -1.2,-0.8 -2.1,-1.2 -2.7,-1.1 l -0.2,0.2 c -1.2,-0.1 -1.9,-0.9 -2,-2.2 l 5.6,-0.7 c 0.4,0 0.7,0.4 3.8,1 4.5,-2.2 4.7,-3.1 7.1,-3.3 l -0.2,-2.5 c -15.4,3 -9.2,1 -28.5,2.7 l -0.9,0.1 -0.2,-2.5 c 24.8,-3 16.5,-1.3 25,-3.7 0.1,0.9 0.4,1.3 0.9,1.3 1,-1 2.1,-1.5 3.4,-1.7 l 1.7,-0.1 c 8.7,-0.7 11.6,1 28.8,-3.8 l 0.1,1.1 2.8,-1.4 2.6,-0.2 c -0.2,-2.5 3.6,-2.9 4.9,-3 l -0.2,-2.7 c -30.2,6.1 -38.1,4.4 -46.5,6.8 l -0.1,-1.1 c -7.9,1.4 -8.2,0.8 -10.2,0.9 -0.6,0.1 -1.5,0.6 -2.5,1.6 -0.1,-0.9 -0.4,-1.3 -1,-1.3 -0.3,0 -0.4,0.1 -0.5,0.1 l -25.6,4.2 c -0.1,-0.7 -0.4,-1.1 -1,-1 -13.3,2.8 -9.7,3.3 -27.5,4.9 -0.8,0.1 -1.9,0.5 -3.3,1.4 -0.1,-0.7 -0.5,-1.1 -1.4,-1 l -10.9,0.9 -7.3,1.8 c -0.1,-0.7 -0.5,-1.1 -1.4,-1 -4.1,1.1 -7.7,1.8 -10.6,2 h -0.2 c -1.8,0.2 0.9,-0.5 -0.5,-1.1 l -2.2,1.3 c -3.2,0.3 -1.5,-0.2 -12.5,-0.1 -19.3,2.4 -17.2,2.7 -19.3,2.8 l -7.2,-0.5 c 0.1,0.7 -0.3,1.2 -1.1,1.2 -8.2,-1.1 -12.4,-2.4 -12.5,-3.9 1.1,-7.8 3,-11.8 5.7,-12 l 1.4,-0.1 -1.2,2.6 1.4,-0.1 c 2.6,-1.4 3.8,-2.7 3.7,-3.9 l -0.2,-2.7 -2.6,0.2 -0.2,-2.5 c -0.2,-1.9 0.1,-3.6 0.8,-5 l 5.9,-9.5 0.2,2.5 2.8,-0.2 -0.2,-2.5 -1.6,-2.3 c 2.1,-1.8 3.7,-2.8 5,-2.9 l -0.1,-1.3 -3.8,0.3 -0.3,-3.8 c 7.6,-15.8 11.2,-25 11,-27.6 l 2.7,1.1 c 1.7,-0.1 2.5,-1.1 2.4,-2.9 l -2.6,0.2 -0.1,-1.1 c -0.2,-1.9 0.2,-3.7 1,-5.3 4.1,-4.3 6,-8.6 5.6,-13.1 0.8,-0.1 1.2,0.3 1.3,1.2 3.5,-2 6.2,-7.3 8.2,-16.1 6.2,-11.2 15,-33.6 26.5,-67.1 22,-59.2 21.1,-65.5 24.2,-79.5 l -2.6,0.2 c 0.2,1.8 -0.2,3.5 -1,5.1 -1.8,-0.7 -3.2,-1.1 -4.2,-1 l -0.1,-1.1 c -0.4,-5.1 1.7,-11.2 6.5,-18.4 l 1.2,-0.1 2.2,8.6 2.6,-0.2 c -0.1,-0.6 0.6,-4 2,-10.3 -0.1,-1.3 -1.1,-2.1 -3.1,-2.2 l -2.5,1.6 c -0.2,-1.8 -0.1,-6.5 0.2,-14 l -1.3,0.1 c -2.2,-2.2 -3.3,-4 -3.4,-5.5 l -14.3,1.4 c -0.1,-1 -0.6,-2.5 -1.6,-4.4 -0.1,-1.3 3.1,-2.6 9.7,-3.9 l 2.9,1.1 2.7,-1.6 c 0.1,0.9 0.6,1.3 1.6,1.2 l 2.7,-1.6 c 0.1,0.9 0.6,1.3 1.6,1.2 L 1202.2,3 1202,0.1 c -2,0.2 -7.3,0.2 -15.7,-0.1 l -2.7,1.8 -0.1,-1.6 c -67.1,5.5 -105.2,8.6 -114.3,9.5 -1.2,0.1 -5.9,0 -14.2,-0.2 0.1,1.1 -0.9,1.7 -2.9,1.9 l -2.9,-1.3 -9.8,2.5 c -2.3,0.2 -6.2,0.1 -11.6,-0.5 -1.5,1.2 -3.3,1.9 -5.5,2.1 -1.2,0.1 14.3,-0.8 28.7,-1.8 -1.5,1.2 -3.8,1.9 -7,2.2 -2.2,0.2 -4.1,-0.1 -5.7,-1 -2.2,1 -9.3,2.6 -21.2,5 l -2.9,-1.1 -46.8,7.2 c -1.8,-0.9 -3.9,-1.2 -6.3,-1 -2.5,0.2 -6.7,1.1 -12.5,2.7 l -22.6,9.4 1.7,2.8 c 1.1,-0.1 2.7,-0.7 4.6,-1.8 l 8,0.7 -1,7.5 c -7.4,3.3 -11.7,8.2 -12.9,14.4 -11.1,4.9 -16.6,8.4 -16.6,10.5 l 0.1,1.3 1.7,-0.1 3,-1.6 3.5,4.2 0.5,5.8 c 0.2,1.8 -18.5,41.1 -55.9,117.9 -32.4,74 -49.4,114.5 -51,121.8 -11.1,3.1 -17.5,7.6 -19.4,13.6 0.2,1.9 3.5,3.2 9.9,3.7 l 0.3,2.9 -2.9,4.8 0.5,5.8 c 0.3,3 8.4,5.3 24.3,6.9 -0.1,-1 0.4,-1.6 1.5,-1.7 0.3,3.6 -0.7,10.6 -3,21 l 1.7,-0.1 c 6.6,-9 9.7,-15.2 9.4,-18.6 l 1.4,-0.1 c 1.6,-0.1 3.3,1.7 5.3,5.6 -2,0.8 -9,16.7 -21,47.8 l 1.7,2.8 1.7,-0.1 c 14.7,-37.2 23.9,-57.8 27.7,-61.7 19.3,-1.7 52.7,-5.1 100.1,-10.2 l 3,-1.8 c 0.1,1 0.7,1.5 1.8,1.4 l 3.1,-0.3 3,-1.8 c 0.1,1 0.7,1.5 1.8,1.4 l 35.9,-3.1 c 9.5,-0.8 14,-3.7 13.6,-8.6 -0.1,-1.3 5.5,-2.8 16.8,-4.4 1.1,-0.1 2.7,0.2 4.9,0.9 -0.1,-0.9 5.6,-1.8 17,-2.8 0.3,-6 2.2,-9.2 5.6,-9.5 l -0.3,-2.9 c -3.2,0.3 -6.8,1.1 -11,2.5 -7.5,-0.4 -12.3,-1 -14.3,-1.7 -2,1.1 -3.5,1.7 -4.6,1.8 l -25,0.8 -3,1.6 c -0.1,-0.9 -0.7,-1.3 -1.8,-1.2 l -1.4,0.1 -3.2,1.6 c -0.1,-0.9 -2.7,-1.6 -7.9,-2.3 l -3.2,1.9 -6.2,0.5 -0.1,-1.6 c 32.2,-3.5 48.1,-7.9 47.7,-13.1 2.1,-0.2 3.2,0.8 3.4,2.9 l 9.4,-2.4 -0.3,-2.9 -77.1,2.1 c 0.1,1 -0.4,1.6 -1.5,1.7 l -9.4,-0.8 c -2.4,0.2 -4.4,0.9 -6,2.1 l -3.5,-1.3 c -9.7,0.8 -16.9,2 -21.7,3.5 -6.6,-0.5 -13.9,-0.4 -22,0.3 l -17.3,1.5 -8,-0.9 c -0.4,-5.1 9.5,-30.2 29.9,-75.2 5.9,-15.2 11.3,-24.7 16.5,-28.3 1.1,-0.1 2.7,0.3 4.9,1.2 l 12.3,-4.2 6.3,1 c 10.6,-0.9 22.9,-3.9 37,-9.1 3.5,-0.3 6.1,-0.1 8,0.7 l 9.4,-2.2 28,-2.4 c 11.9,-1 24.8,-3.6 38.8,-7.9 l -0.3,-2.9 c -5.2,0.5 -7.9,-0.4 -8.1,-2.5 -0.3,-3.9 -4.1,-5.5 -11.4,-4.9 l -0.3,-2.9 7.7,-2.2 20.2,-1.7 -0.3,-2.9 c -0.8,0.1 -4.9,0 -12.5,-0.3 l -0.3,-3.1 7.8,-0.7 c 2.1,-0.2 3,-1.2 2.8,-3.2 -10.5,0.3 -15.8,-0.2 -15.9,-1.6 -73.2,3.6 -109.9,4.3 -110.1,2 -1.1,0.1 -2.6,0.8 -4.6,2 l -1.9,-3 c 19.4,-41.2 30.8,-62 34.1,-62.3 0.1,1.6 -0.7,4.2 -2.4,7.7 l 0.1,1.3 3.1,-0.3 c 7.7,-18.4 14.2,-27.9 19.6,-28.3 23,-2 -3.2,-3.5 46,-11.2 2,0.9 3.4,1.3 4.4,1.2 19.3,-3.9 46.2,-8 80.7,-12.2 l -0.2,-2.9 -18.4,1.7 -0.2,-2.9 c 2.2,-0.2 4,-0.9 5.5,-2.1 l 0.1,1.6 c 1,-0.1 2.4,-0.8 4.2,-2 3.2,-0.3 5.6,0 7.3,0.9 6.4,-1.7 11.6,-2.7 15.4,-3.1 l 11.5,-1.1 c 2.8,-1.8 4.1,-3.4 4,-4.9 l -0.1,-1.3 c -2.9,0.3 -6.2,0.1 -10.1,-0.6 -0.1,-1.6 0.7,-2.7 2.6,-3.2 l 21.4,-2 9.8,-2.5 c 0.1,1.1 0.6,1.5 1.4,1.5 1,-0.1 2.4,-0.8 4.2,-2 0.5,0.1 1.1,0.1 1.6,0.2 -1.3,2.7 -2.8,6.6 -4.3,11.7 l -2.8,0.2 c -0.2,-1.9 -0.7,-3.6 -1.6,-5.1 l -1.4,0.1 c -26,72.4 -37.6,106.1 -61.6,161.7 -4.4,14.2 -8.1,22.1 -11.3,23.8 0.1,1.6 1.1,2.4 2.8,2.2 0.6,7 -1,13.9 -4.9,20.7 -11.1,32 -18.5,49.5 -22.3,52.7 l 2.5,15.1 c 0.1,1.6 -0.7,2.5 -2.4,2.7 l -2.6,0.2 c -0.4,-4.2 -1.9,-6.2 -4.6,-5.9 l -1.4,0.1 c -3.4,5.3 -6,11.4 -7.7,18.5 l 2.6,-0.2 c 3.5,-2.3 5.1,-5 4.8,-8.1 l 5.2,-0.5 3,1.1 c -2.4,3.8 -3.5,6.8 -3.3,9.1 l 1.4,2.4 -3.4,8 0.1,1.3 c 3,-0.3 6.3,0.7 9.8,2.8 2.4,-0.2 5,-1.3 7.9,-3.2 3,-0.3 14.2,-0.4 33.5,-0.4 l 9.7,-3.3 c 11.8,-0.1 13.7,0.2 23.9,-0.7 l 4.2,-0.4 2.2,-1.5 0.1,1.3 c 10.7,-0.9 11.4,-0.2 19.8,0.8 l 0.1,1.3 -5.9,0.5 0.2,2.5 c 1.8,-0.2 3.4,-0.7 4.7,-1.8 1.5,-0.1 2.4,0.7 2.5,2.5 -2.4,0.2 -5.1,0.8 -8.1,1.8 l -2.6,-0.9 c -4.1,1.1 -3.2,1.4 -6,1.6 l -4.1,-0.8 c 0.1,0.7 -0.3,1.2 -1,1.2 0.1,1.6 1,2.4 2.5,2.3 l 4.2,-0.4 21.9,-1.9 8.3,-1.8 c 0.1,0.7 0.4,1.1 1.1,1 l 4,-1.5 7.5,-0.6 c 5.8,-0.5 5.7,-0.9 18.3,-2.9 -0.1,-0.8 0.2,-1.1 0.8,-1.2 l 0.1,1.1 c 20.5,-3.5 21.8,-3.7 25.1,-4.8 l 0.3,0.6 c 5.1,-1.2 2.2,-0.9 3.6,-1.9 0.1,0.9 0.4,1.3 0.9,1.3 l 3.6,-0.3 -0.2,-2.7 -7.3,-0.1 -0.1,-0.2 c -0.3,0.1 -0.5,0.1 -0.8,0.2 h -1 v 0.2 c -4.9,1 -5,0.3 -8.2,0.6 l -18.3,1 -0.1,-1.3 10.2,-1.4 3.7,-0.3 2.1,-1.5 0.1,1.3 c 14.4,-1.2 19.5,2.4 86.1,-11.8 3.6,-0.3 3.3,-3.3 5.6,-9.5 -1.2,0.1 -2.4,-0.2 -3.5,-0.8 -5.5,2.1 -8.4,1.1 -19,2.8 -0.9,0.1 -1.6,-0.7 -1.9,-2.3 l -0.1,-1.1 10.2,0.3 c 1.9,-0.2 5.6,-0.5 11.1,-3.6 0,0.9 -2.1,1.4 -0.9,1.3 z m -492.4,7.9 -4.7,0.4 c -0.2,-1.9 2.3,-9.1 7.5,-21.4 l 3.1,-0.3 c 0.1,2.9 -1.8,10 -5.9,21.3 z m 5.7,-22.8 -0.1,-1.3 c -0.1,-1.6 0.9,-2.7 3.1,-3.2 l 0.1,1.3 c 0.1,1.9 -0.9,3 -3.1,3.2 z m 62.5,48.3 0.1,1.3 -7.8,0.7 -0.1,-1.3 z m -9.4,-0.8 c 0.1,1.6 -2.3,3.4 -7.5,5.2 l -9.6,-0.7 -3.1,0.3 -0.3,-2.9 z M 955.8,40.6 951.1,41 951,39.4 c -0.1,-1.6 0.8,-2.7 2.8,-3.2 l 1.7,-0.1 3.2,1.3 c 0.1,1.9 -0.8,3 -2.9,3.2 z m 71.5,-14 1.5,-0.1 0.2,2.9 -4.3,0.4 c -0.1,-1.6 0.7,-2.7 2.6,-3.2 z m -18,6.3 -7.1,-0.8 -0.1,-1.3 c 9.3,-0.8 12.4,-1.8 18.1,-3.4 0.1,1.1 1.1,1.5 2.9,1.3 l 0.2,2.9 -2.8,0.3 c -2.2,0.2 -4.1,-0.1 -5.7,-1 -1.7,1.1 -3.5,1.8 -5.5,2 z m 8.9,25.9 -0.1,-1.3 11.5,-1.1 0.1,1.3 z m 12.3,-10 -0.1,-1.6 5.6,-0.5 0.1,1.6 z m 1.3,-19.6 -1.5,0.1 1.3,-3.1 12.8,-1.2 0.1,1.6 c -3.3,0.3 -7.6,1.2 -12.7,2.6 z m 6.5,27.6 -0.2,-2.9 5.6,-0.5 c 1.9,-0.2 2.9,0.7 3,2.7 z m 33.9,-46.2 -7.2,2 -1.3,0.1 c -3.4,0.3 -7.8,0.2 -13,-0.3 9.3,-0.6 18.2,-1.3 21.5,-1.8 z m -7.7,32 0.1,1.3 -9.9,0.9 -0.1,-1.3 z m 16.2,7.7 c -0.1,-1.2 -2,-2 -5.9,-2.4 l -9.9,2.8 -7.6,0.3 c -1.7,-1.2 -2.6,-2 -2.7,-2.6 l 8.8,0.5 19.8,-3.2 10.1,0.4 0.1,1.6 c -5,0.5 -9.2,1.4 -12.7,2.6 z M 1182.6,24 c 1.2,0.1 2,0.1 2.3,0.1 3.5,-3.4 7.4,-6.1 11.9,-8 -3.6,15.8 -9.2,27.5 -16.9,35.1 l -5.6,-3.4 c 4.7,-11.9 7.5,-19.8 8.3,-23.8 z m -17.2,29.5 1.4,-0.1 c -1.9,3.6 -3.6,5.5 -5,5.6 l -0.3,-3.8 c 0.9,0 2.2,-0.6 3.9,-1.7 z M 1154.3,80 c 2.7,-10.8 5.3,-16.9 7.7,-18.5 l 0.1,1.3 c -1.4,10 -3.6,15.3 -6.5,15.7 l 0.5,6.3 c -2.4,3.4 -3.5,6 -3.4,8 l -1.4,0.1 -0.8,-8.7 c 1.6,-0.2 2.9,-1.6 3.8,-4.2 z m -4.3,14.4 c 0.1,1.5 -0.9,5 -2.9,10.4 l -1.4,0.1 -0.3,-3.8 c 1.9,-4.4 3.5,-6.6 4.6,-6.7 z m -80.7,234.2 -0.1,-1.1 2.6,-0.2 0.3,3.8 c -1.4,0.1 -2.4,-0.7 -2.8,-2.5 z m 115.3,3 c -0.1,-0.9 -0.5,-1.3 -1.4,-1.2 l -6.5,0.6 -0.1,-1.3 h 0.6 l 15.4,-1.3 0.1,1.3 c -4.5,0.2 -7.2,0.9 -8.1,1.9 z m -7.7,-3.2 c 0.6,0.3 0.3,0.6 0,0.8 -0.3,-0.1 -0.7,-0.4 0,-0.8 z m 0.8,-18 -8.6,0.7 -0.1,-1.3 7.8,-0.7 6.8,-1.7 c 0.1,0.8 0.5,1.1 1.4,1 8.1,-1.4 7.3,-1.8 11.2,-2.1 1.3,-0.1 2.1,0.7 2.2,2.3 z m 30.1,-2.6 c -4.8,-0.5 -5.1,-0.9 -8.5,-0.6 l -0.1,-1.1 7.7,-0.7 0.1,1.1 c -0.8,0.1 2.1,0.3 0.8,1.3 z m 0.6,-1.4 -0.1,-1.1 4.2,-0.4 0.1,1.1 z m 9.3,-0.8 -0.1,-1.1 c 0.7,-0.1 1.7,-0.6 3,-1.6 2.1,-0.2 3.2,1.2 3.4,2.8 z m 11.9,-1.5 -0.1,-1.3 5.1,-0.4 0.1,1.3 z m 7.1,-0.6 c -0.1,-1.5 0.5,-2.4 1.8,-2.6 l 1.7,2.2 c -0.1,-0.7 0.2,-1.1 0.8,-1.2 l 1.3,2.4 z m 98.4,-11.6 0.1,-0.1 v -0.1 c 0,0 -0.1,0.1 -0.1,0.2 z m 1.8,-1.3 c 0.8,-0.5 1.2,-1 -0.7,-1.3 -0.9,1 1,1.3 -1,1.4 l 0.1,0.9 c 0.2,-0.2 0.7,-0.5 1.1,-0.8 l -1.1,0.9 v 0.1 l -2.1,2.7 4.2,-1.5 h 0.5 l -0.2,-2.5 z m 7.3,5.7 -0.8,0.1 0.2,2.5 5.9,-0.5 c -0.1,-1.6 -4,-2.1 -5.3,-2.1 z" />
</svg>
