<?xml version="1.0" encoding="UTF-8" standalone="no"?>
<svg
   xmlns:svg="http://www.w3.org/2000/svg"
   xmlns="http://www.w3.org/2000/svg"
   height="173.67"
   width="173.67"
   version="1.1"
   viewBox="0 0 173.67001 173.67"
   data-name="Layer 1"
   id="Layer_1">
  <defs
     id="defs40">
    <style
       id="style38">.cls-1{fill:#666;}</style>
  </defs>
  <path
     style="fill:#666666;fill-opacity:1"
     id="path67"
     d="M 157.3,0 H 16.37 A 16.37,16.37 0 0 0 0,16.37 V 157.3 a 16.37,16.37 0 0 0 16.37,16.37 H 157.3 A 16.37,16.37 0 0 0 173.67,157.3 V 16.37 A 16.37,16.37 0 0 0 157.3,0 Z" />
  <path
     style="fill:#ffffff;fill-opacity:1"
     id="path65"
     d="m 129.7,139 a 129.88,129.88 0 0 1 -52,11.26 c -5.17,0 -12.74,-0.84 -19.4,-4.85 -11.5,-6.9 -13.9,-19.2 -13.9,-28.4 V 55.3 c 0,-9.18 2.4,-21.56 13.9,-28.47 6.67,-4 14.23,-4.85 19.4,-4.85 28.65,0 47.13,8.52 52.1,11.13 l 3.06,1.6 -8.72,18 -3.14,-1.4 c -15.36,-6.6 -32.92,-8.7 -37.58,-8.7 -7.57,0 -15.66,3.4 -15.66,12.9 v 61.2 c 0,9.5 8.1,12.9 15.66,12.9 4.66,0 22.22,-2.1 37.58,-8.76 l 3.13,-1.36 8.77,18.1 z" />
</svg>
