<?xml version="1.0" encoding="UTF-8" standalone="no"?>
<svg
   xmlns:svg="http://www.w3.org/2000/svg"
   xmlns="http://www.w3.org/2000/svg"
   id="svg177"
   version="1.1"
   preserveAspectRatio="xMidYMid"
   viewBox="0 0 255.14 255.14"
   height="2491.6016"
   width="2491.6016">
  <defs
     id="defs181" />
  <path
     style="fill:#932279"
     id="path165"
     d="m 107.472,118.253 9.229,9.177 -9.229,9.175 H 42.513 v 30.571 L 2.898,127.43 42.513,88.35 v 29.903 h 64.96 z m 28.554,-78.068 h 78.929 v 78.93 h -78.929 z" />
  <path
     style="fill:#efa724"
     id="path167"
     d="m 136.887,107.472 -9.175,9.229 -9.175,-9.229 V 42.513 H 87.964 l 39.748,-39.615 39.077,39.615 h -29.902 v 64.96 z m -0.86,28.554 h 78.928 v 78.93 h -78.929 v -78.93 z" />
  <path
     style="fill:#262577"
     id="path169"
     d="m 147.669,136.887 -9.23,-9.175 9.23,-9.175 h 64.958 V 87.964 l 39.617,39.748 -39.617,39.077 v -29.902 z m -107.484,-0.86 h 78.929 v 78.93 H 40.185 Z" />
  <path
     style="fill:#9ccd2a"
     id="path171"
     d="m 118.253,147.669 9.175,-9.23 9.177,9.23 v 64.96 h 30.571 l -39.748,39.615 -39.076,-39.615 h 29.901 z M 40.185,40.185 h 78.929 v 78.93 H 40.185 Z" />
  <path
     style="fill:#ffffff"
     id="path173"
     d="m 37.366,37.366 h 84.567 v 84.567 H 37.366 Z m 5.637,78.93 h 73.291 V 43.005 H 43.003 Z m 90.206,-78.93 h 84.567 v 84.567 h -84.567 z m 5.637,78.93 h 73.291 V 43.005 h -73.291 z m -5.637,16.913 h 84.567 v 84.569 h -84.567 v -84.57 z m 5.637,78.928 h 73.291 V 138.846 H 138.846 Z M 37.366,133.209 h 84.567 v 84.569 H 37.366 v -84.57 z m 5.637,78.928 h 73.291 V 138.846 H 43.003 Z" />
  <path
     style="fill:#ffffff"
     id="path175"
     d="M 59.8,187.37 0,127.57 59.799,67.772 l 59.8,59.798 -59.798,59.8 z M 7.974,127.57 59.8,179.396 111.624,127.57 59.798,75.746 Z M 127.57,119.598 67.772,59.8 127.57,0 187.368,59.8 Z M 75.746,59.8 127.57,111.624 179.396,59.8 127.57,7.974 Z m 119.596,127.57 -59.798,-59.8 59.798,-59.798 59.798,59.798 z m -51.826,-59.8 51.826,51.826 51.824,-51.826 -51.824,-51.824 z m -15.946,127.57 -59.798,-59.798 59.798,-59.798 59.798,59.798 z m -51.824,-59.798 51.824,51.824 51.826,-51.824 -51.826,-51.824 z" />
</svg>
