<?xml version="1.0" encoding="UTF-8" standalone="no"?>
<svg
   xmlns:svg="http://www.w3.org/2000/svg"
   xmlns="http://www.w3.org/2000/svg"
   id="svg267"
   viewBox="0 0 64.013283 57.105946"
   role="img"
   aria-labelledby="flask-logo-title"
   version="1.1">
  <defs
     id="defs271" />
  <title
     id="flask-logo-title">Flask logo</title>
  <path
     style="fill:#010101"
     id="path265"
     d="m 19.130367,50.835524 c -2.44,-1.92 -5,-3.76 -6.82,-6.35 a 51.5,51.5 0 0 1 -8.5899999,-15.4 c -1.19,-3.61 -1.6,-7.48 -3.12999996,-11 -1.60000004,-2.52 0.27,-5.28 2.99999996,-6.08 1.23,-0.24 3.39,-1.4 0.78,-0.57 -2.34,1.72 -2.57,-1.5600003 -0.17,-1.7700003 a 1.9,1.9 0 0 0 1.72,-2.72 c -1.75,-1.14 4.2699999,-2.4 1.24,-4.11 -3.16,-3.40999998 4.4099999,-4.06 2.54,-0.2 -0.45,3 5.2899999,-0.55 3.9999999,2.89 1.35,1.65 5.07,0.38 5,2.69 2,0.14 2.65,1.7900003 4.5,1.9200003 1.92,0.87 5.39,1.55 6,3.71 -1.9,1.51 -6.31,-3.11 -6.52,1.06 0.57,6.16 0.43,12.5 2.68,18.37 1.07,3.55 3.65,6.35 6,9.11 a 26.18,26.18 0 0 0 8.34,6.22 34.38,34.38 0 0 0 8.57,2.65 c 1.2,-0.91 3.31,-4.31 5.17,-2.88 0.09,1.61 -3.7,3.37 -0.18,3.19 2.07,-0.62 3.5,1.6 5.21,-0.41 1.53,1.87 6.53,-1.18 5.37,2.62 -1.51,1 -3.71,0.39 -5.22,1.73 -2.49,-1.25 -4.48,1.11 -7.24,0.82 a 53.19,53.19 0 0 1 -9.29,0.78 c -5.09,-0.42 -10.31,-0.56 -15.16,-2.36 a 30.72,30.72 0 0 1 -7.8,-3.91 z m 4.31,1.87 a 30.26,30.26 0 0 0 8.2,2.74 c 4.64,0.65 9.43,1.64 14.09,0.73 -2.11,-1 -4.29,0.37 -6.38,-0.68 -2.52,0.54 -5.22,-0.14 -7.78,-0.47 -2.91,-1.3 -6.05,-2.19 -8.78,-3.87 -3.41,-1.24 1.76,1.6 2.68,1.83 2.13,1.21 -2.34,-0.62 -3,-1.12 -1.78,-1 -2,-0.79 -0.18,0.22 0.37,0.22 0.73,0.44 1.12,0.63 v 0 z m -5.08,-3.59 c 2.59,1 0,-1.82 -1.2,-1.66 -0.52,-0.91 -2,-1.49 -1,-2 -1.88,0.65 -2,-2.48 -2.85,-2 -2,-0.63 -0.77,-2.85 -3.14,-4.22 -0.17,-1.44 -2.3199999,-2.69 -2.9999999,-4.86 -0.3,-1.11 -2.41,-4.3 -1.12,-1.33 1.1,2.86 3,5.31 4.6699999,7.75 1.26,2.33 2.74,4.76 5,6.21 0.77,0.74 1.52,1.87 2.6,2.11 v 0 z m -7.45,-8.18 c 0.09,-0.39 0.47,0.85 0,0 z m 10.54,9.33 c 0.55,-0.26 -0.82,-0.33 0,0 z m 1.4,0.51 c -0.14,-0.71 -0.64,0.4 0,0 z m 1.76,0.77 c 0.84,-0.83 -1.29,-0.54 0,0 z m 3,1.68 c 0.52,-0.79 -1.61,-0.32 0.01,-0.04 z m -5.78,-4 c 1.31,-0.91 -1.67,-0.08 0.01,-0.07 z m 1.32,0.66 c -0.03,-0.52 -0.46,0.13 0.01,-0.07 z m 6.59,4.11 c 1.06,0.67 6.18,1.46 3,0.27 -0.56,0.05 -5.97,-1.6 -2.99,-0.34 z m -10.45,-8.22 c -0.11,-0.44 -1.65,-0.49 0,0 z m 3.06,1.77 c 0.8,-0.54 -1.65,-0.41 0,0 z m 2.58,1.58 c 1.15,-0.41 -1.85,-0.41 0,0.02 z m -6.93,-4.7 c 1.24,1 5,0.12 1.9,-0.57 -1.41,-0.75 -4.6,-1.27 -2.43,0.45 z m 8.64,5.27 c 0.56,-0.88 -2.13,-0.5 0.04,0 z m -2.63,-2.09 c 3,0.86 -2.55,-1.92 -0.75,-0.32 l 0.4,0.18 z m 5.26,3 c 2.88,0 -2.6,-0.4 0,0 z m -12.34,-7.85 c -0.11,-0.54 -0.71,0.05 0,0 z m 17.26,10.63 c 0.07,-0.97 -0.94,0.72 0,0 z m -12.35,-7.62 c -0.17,-0.51 -0.9,-0.02 0,0 z m -4.64,-3.34 c 1.66,-0.11 -2.26,-0.73 0.01,-0.01 z m -5.49,-3.55 c -0.2,-0.8 -1.7999999,-1.43 0,-0.01 z m 14.42,9.15 c -0.3,-0.35 -0.13,0.07 0,0 z m 9,5.51 c -0.05,-0.53 -0.51,0.19 -0.02,0.01 z m -9.77,-6.33 c 0.14,-0.66 -1.43,-0.21 -0.02,0 z m -6.69,-4.24 c 1.21,-0.13 -1.99,-0.83 -0.02,0 z m 11.31,7 c 1.9,-0.73 -1.88,-0.34 0.02,0.03 z m -5.88,-4 c 2.21,0.28 -2.63,-1.5 -0.48,-0.16 z m 7.67,4.72 c 2.06,-1.23 1.38,2.88 3.5,0.35 2.09,-1.52 -1.8,1.88 0.77,0.27 1.86,-1.24 4.61,0.59 6.34,1.19 1.25,-0.06 2.46,1.08 3.74,0.39 2.46,-0.66 -4.81,-1 -2.91,-2.16 -2.25,0.66 -3.92,-0.78 -5,-2.22 -2.53,-0.58 -5.45,-1.88 -6.71,-4.11 -0.56,-0.85 0.7,0.15 -0.5,-1.24 a 18.33,18.33 0 0 1 -3.31,-4.54 c -1.22,-0.65 -1.36,-2.57 -1.49,-0.06 0,-1.58 -1.47,-2.64 -1.84,-2.2 0,-1.52 1.59,-0.76 0.47,-1.89 -0.24,-1.58 -1,-3.22 -1.27,-5 -0.37,-0.86 -0.05,-2.7 -1.26,-0.75 -0.44,2.05 -0.15,-2.52 0.54,-1 0.9,-1.54 -0.32,-1.36 -0.37,-1.15 0.59,-1.3 0.37,-3.14 -0.15,-2.44 0.31,-1.38 0.49,-5.07 -0.47,-4.42 0.58,-1.44 1.1,-6.59 -1.42,-4.63 a 10.74,10.74 0 0 0 -3.64,0.79 c 2.63,1.45 -0.26,0.52 -1.33,0.29 -0.14,1.34 -1.2,0.76 -2.52,0.77 2.11,0.26 -1,2.16 -2.24,1.42 -1.5799999,0.75 1.36,2.63 0,3.21 0.16,0.88 -2.4099999,-0.32 -2.2099999,1.71 -1.53,-0.64 -0.21,2.4 0.55,1.37 2.5999999,0.7 1.8299999,2.31 1.8999999,3.83 -0.42,0.89 -2.0899999,-2.09 -0.37,-2 -1.3599999,-2.21 -1.4999999,-0.8 -2.6299999,0.23 -0.26,0.07 2.8799999,1.46 0.91,2.14 1.7299999,0.27 1.7799999,1.78 2.1399999,2.74 1,1.09 0.83,-1.2 2.08,0.11 -0.79,-1.16 -4.1799999,-3.27 -1.45,-2.6 0,-1.17 -0.49,-2.11 0.34,-2.09 0.83,-1.5 -0.87,3.7 1,1.79 0.52,-0.23 0.64,-1.5 1.57,0.12 1.35,1.33 0.49,2.29 -1.42,1.07 0.34,1.15 2.55,1.57 2.13,3.37 0.44,1.59 1.05,1 1.59,0.91 0.42,1.54 0.66,0.41 0.68,-0.33 1.97,0.48 1.49,1.62 2.12,2.41 1.33,0.6 -1.9,-4.06 0.38,-1.4 2.4,2.16 0.9,3.06 -1.25,2.72 1.36,-0.11 1.8,1.84 3.5,1.77 1.55,0.74 2.6,3.57 -0.07,2.39 -0.94,-0.83 -4.19,-1.87 -1.54,-0.27 a 63.38,63.38 0 0 1 6.83,3.27 c 1.71,1.22 2.45,2.62 3.1,2.89 -1.44,0.69 -4.33,-0.55 -2.18,-0.93 -1.34,-0.24 -2.85,-0.92 -1.56,0.75 1.09,0.91 3.87,0.81 4.36,0.92 -0.42,0.93 -1.15,1 0,1.07 -1.3,0.69 0.42,0.8 0.54,1.19 v 0 z m -2.67,-7.46 c -0.79,-0.83 -1,-2.37 -0.14,-1 0.44,0.18 1.4,2.53 0.14,1 z m 8.64,5.49 c 0.49,-0.04 0.01,0.37 0,0 z m -9.88,-7.51 c -0.04,-1.25 0.28,0.96 -0.01,0 z m -0.86,-1.16 c -1,-1.92 1.25,0.5 0,0 z m -10.4,-7.18 c 0.58,-0.15 0.28,1 -0.01,0 z m 8.28,4.49 c 0.35,-1.35 0.41,1.13 -0.01,0 z m -5.88,-4.07 c -0.39,-0.74 0.89,0.7 0,0 z m 5,1.61 c -0.94,-2.11 0.67,-1.15 0.21,0.35 z m -8.66,-5.77 c -0.42,-0.69 -1.12,-2.72 -0.89,-3.34 0.2,1 2.14,4.34 1,1.38 -1.32,-2.48 1.57,0.81 1.87,1.42 0.14,0.62 -0.81,-0.17 -0.17,1.28 -1.15,-1.64 -0.69,0.91 -1.76,-0.74 z m -2.68,-1.84 c 0.16,-1.61 0.66,1.1 0.05,-0.01 z m 1.2,0.41 c 0.63,-1.21 1.03,1.69 0.05,0 z m -2.86,-2.24 c -1,-1 -1.7199999,-1.9 0,-0.61 0.68,0 -1.5099999,-2.07 0.16,-0.67 1.84,0.32 0.94,2.88 -0.16,1.28 z m 1.52,0 c 0.6,-0.61 0.33,0.52 0.02,-0.04 z m 0.94,0.3 c -0.86,-1.68 1.08,0.65 0.02,-0.04 z m -1.86,-1.78 c -2.8999999,-2.58 3.64,1.35 0.47,0.48 z m 8.3,4.82 c -1.25,-0.75 -0.33,-5.29 0.1,-2.19 1.22,-0.39 -0.07,1.6 0.84,1.58 -0.13,1.23 -0.54,1.68 -0.93,0.57 z m 3.1,1.75 c 0.1,-1.34 0.24,1 0,0 z m -0.53,-0.53 c 0.12,-0.55 -0.01,0.72 -0.02,0.03 z m -10.26,-7 c -1.86,-2.57 5.41,2.6 1.19,0.65 a 1.48,1.48 0 0 1 -1.22,-0.57 z m 5.91,3.13 c -0.18,-2.16 0.39,0.36 0,0 z m 4.49,2.88 c 0.32,-1.15 0,0.89 -0.03,0.08 z m -10.11,-7 c 1.11,-0.24 4.58,1.94 1.39,0.62 -0.39,-0.3 -1.14,-0.1 -1.42,-0.53 z m 9.5,4.82 c 0.12,-2.21 0.66,-1.32 0,0.32 z m -8.67,-5.5 c 0.45,-0.66 -1.2,-3 0.24,-0.83 0.62,0.49 1.79,0.82 0.76,1 1.59,1.46 -0.44,0.41 -1.04,-0.17 z m 8.2,4.81 c 0.27,-2.52 0.24,1.47 -0.04,0 z m -9.14,-7.14 c 0.31,-0.14 0.14,0.46 -0.04,0 z m 2.14,1.27 c 0.47,-1.15 0.98,1.26 -0.04,0.01 z m 6,3.36 c -0.01,-0.44 0.11,0.65 -0.01,0 z m -0.35,-0.77 c -0.84,-2.07 0.82,1.09 0,0 z m -0.52,-1.33 c -0.14,-0.85 0.48,1.07 0,0 z m 0.84,-1.36 c -0.57,-1 0.73,-4.46 0.87,-2.32 -0.61,1.67 -0.17,2.6 0.25,0.36 0.78,-1.76 -0.17,3.47 -1.12,2 v 0 z m 0.86,-5.13 c 0.25,-0.34 0.05,0.34 0,-0.03 z m -1.44,28.3 c -0.34,-0.32 0.08,0.19 0,-0.03 z m 3,1.5 c 1.65,0.42 1.64,-0.26 0.15,-0.46 -0.8,-0.74 -3.32,-1.53 -1.07,-0.09 a 1.6,1.6 0 0 0 0.92,0.55 z m -5.92,-3.91 c 0.91,0.68 3.42,1.92 1.29,0.26 0.72,-0.83 -1.37,-1.27 -0.68,-1.83 -1.76,-1.08 -1.39,-1 -0.16,-0.95 -2.12,-0.95 0.31,-0.87 0.19,-1.36 -0.82,-0.16 -4.05,-1.44 -2.15,0.1 -1.94,-1 -0.46,0.37 -1,0.22 -2,-0.54 1.76,1.51 -0.31,1 1.14,0.9 3.06,2.3 0.48,1 -0.34,0.45 1.84,1.16 2.34,1.56 z m 3.09,1.78 c 3.8,1.21 -1.8,-1.48 0.04,0 z m 15.91,9.59 c 0,-0.77 -0.54,0.64 0,0 z m 1.63,0.69 c 0.87,-0.84 0,1.34 1.44,-0.21 0,-1.11 0,-1.76 -1.61,-0.42 -0.43,0.24 -0.63,1.26 0.17,0.62 v 0 z m -25.87,-16.23 c -0.27,-1.05 -1.8699999,-1.04 0,0 z m 1.74,1.14 c -0.65,-1.07 -2.31,-0.97 -0.01,0 z m 9.89,6 c 1,0.86 4.44,0.63 1.17,0.11 -0.49,-0.76 -3.07,-0.58 -1.17,-0.15 z m 13.61,8.36 c 1.47,-1.25 -1.46,0.56 0,0 z m 3.09,2.12 c -0.01,-0.4 -0.66,0.15 -0.02,0 z m 0,-0.56 c 1.65,-1.74 -1.59,0.1 0,0 z m -32.6099999,-20.64 c -1.4,-2 -0.87,-2.9 -2.22,-4.54 -0.26,-1.25 -2.33,-4.11 -1.07,-1.11 1.14,1.79 1.48,4.51 3.29,5.65 z m 32.0799999,20.09 c 3.03,-1.96 -1.24,-0.85 0,0 z m 2.31,0.91 c 1.52,-1.31 -0.96,-0.28 0,-0.01 z m -30.63,-19.65 c 0.43,-0.63 -1.12,-0.07 0,0 z m 30.15,19 c 1.47,-0.95 -0.34,-0.8 -0.27,0.09 z m -19.92,-12.53 c -0.06,-0.64 -0.78,0.05 0,0 z m 1.23,0.71 c -0.39,-0.8 -0.6,0.12 0,0 z m 21,12.49 c 1.88,-1.36 -1.14,-0.26 -0.39,0.26 z m -0.7,-0.35 c 1.56,-1.32 -1.59,0.57 0,0 z m 3.68,2.45 c 1.05,-0.69 -1.22,-0.22 0.03,0 z m -34.5,-22.22 c 1.38,0.31 5.51,3.4 3.07,0.21 -1.25,-0.37 -0.5,-3.42 -1.77,-2.88 0.85,1.43 0.7,2 -1.09,1.14 -2.26,-1.1 -1.27,0.55 -0.83,1 -0.6,0.14 0.79,0.52 0.62,0.53 z m -6.2799999,-5 c 0.25,-1 -2.27,-5.62 -1.19,-2.3 0.39,0.75 0.35,2.05 1.19,2.34 z m 11.5299999,7.15 c -0.71,-0.6 -0.03,-0.09 0,0 z m 1.75,0.41 c 0,-1.11 -1.93,-0.44 0,-0.01 z m 15.15,9.55 c -0.29,-0.74 -1.14,0 0,0 z m 0.73,0.53 c -0.06,-0.41 -0.42,0.08 0,0 z m 6,3.78 c 0.59,-0.42 -0.71,-0.05 0.01,0.03 z m -32.0599999,-20.58 c 1.6899999,-0.64 -1.73,-0.46 0,0 z m 23.9999999,15.1 c 0,-1.07 -1.05,0.26 0,0 z m -24.6099999,-16.62 c 1.06,-0.36 -0.99,-0.24 0,0 z m 3.0799999,1.49 c -0.02,-0.36 -0.33,0.13 0,0 z m 37.53,23.04 c 1.36,-0.28 4.47,0.69 5,-0.36 -1.66,0 -5.73,-1.17 -5.93,0.27 l 0.36,0.06 h 0.59 v 0 z m -36.55,-22.79 c 0.02,-1.09 -0.85,-0.04 0,0 z m -8.0999999,-5.61 c -0.35,-2.08 -1.4,-0.32 0,0 z m 1.93,0.49 c 0.02,-0.68 -1.77,-0.61 0,-0.02 z m 1.1,0.51 c -0.32,-0.24 -0.25,0.34 0,0 z m 6.9499999,4.46 c 0.32,-0.29 -0.78,-0.21 0,0.01 z m -7.6799999,-5.67 c -0.19,-1.56 -2.24,-0.23 0,0 z m -4,-2.57 c -0.02,-0.72 -0.35,0.28 0.04,0 z m 0.59,-0.44 c -0.06,-0.85 -0.47,0.11 0.04,0 z m 3.25,1.94 c 1.38,-0.54 -2.51,-1.12 -0.28,-0.1 z m 43.5599999,26.9 c 0.95,-0.8 -1.05,-0.24 0.04,0.01 z m 5.26,2.73 c 0.39,-1.04 -0.85,0.14 0.04,0 z m -48.4499999,-31.35 c 0.14,-1 -1.09,0.22 0,0 z m -4.63,-3.1 c -0.23,-1.41 -0.23,-3.9 2.17,-3.07 -3.18,0.63 2.2,3.95 1.52,1.33 1.34,0.07 2.61,-0.79 1.91,0.51 2.6299999,-0.29 4.4599999,-2.57 6.9999999,-2.25 a 27.71,27.71 0 0 0 6.28,-1.26 c 1.75,-0.13 3.44,-2 2.48,-3.13 a 27.18,27.18 0 0 0 -7.54,0.62 c -2.93,0.61 -5.59,1.77 -8.5499999,2.26 -2.96,0.49 0.58,1.09 -0.25,1.22 -1.5,0.52 1.75,0.87 -0.19,1.42 -1.23,-0.23 -2.51,-0.66 -2,-1.95 -2.76,0.36 -5.18999996,1.5 -3,4.31 h 0.17 z m 6.65,-3.39 c 0.65,-2.38 3.4699999,2 1.06,0.32 a 1.5,1.5 0 0 0 -1.06,-0.3 z m 0.12,-1.14 c 0.94,-0.7 0.51,0.39 0,0 z m 1.1899999,0 c 0.08,-1.1 2.71,0.58 0.43,0.39 z m 1.62,-0.65 c 0.6,-0.72 0.19,0.63 0.01,0.02 z m 0.42,-0.28 c 1,-1.19 5.59,-0.76 2.22,-0.12 -0.9,-0.66 -1.59,0.42 -2.22,0.14 z m 6,-0.93 c -0.15,-3.2100003 2.99,1.17 0,0.02 z m 1.7,0 c 0.62,-1.63 2.42,-0.65 0.29,-0.33 0.05,0.19 -0.06,0.82 -0.28,0.34 z m -13.7399999,8.67 c 1.86,-1.14 -2,-1 0,0 z m 1.38,0.38 c 0.65,-0.69 -1.42,-0.28 0,0 z m -4.06,-2.88 c 1.07,-0.81 -1.26,-0.31 0,0 z m 54.9399999,34.38 c 0.04,-0.95 -0.81,0.42 0,0 z m -5.58,-3.81 c 0.13,-1.1 -0.72,0.09 0,0 z m 7.13,4.17 c 1.49,0 4.5,-0.46 1.27,-0.46 -0.51,0.08 -3,0.06 -1.27,0.46 z m -51.2199999,-32.53 c 1.2,-0.08 1.8799999,-1.33 -0.23,-1.26 -3.28,-0.34 2.8899999,1.12 -0.42,0.7 -0.45,0.31 0.62,0.67 0.65,0.56 z m 1.06,0.54 c -0.13,-0.77 -0.38,0.41 0,0 z m 1.2599999,-3.35 c 0.52,-0.65 -0.73,-0.18 -0.01,0 z m -3.9999999,-6.69 c 2.15,-0.73 5.0799999,-1.5500003 6.0999999,0.36 -1,-1.24 -0.42,-2.4600003 0.56,-0.65 1.38,1.84 2.07,-0.8400003 1.17,-1.4500003 1,1.2700003 2.18,1.8700003 0.68,0.08 1.63,-2 -3.26,0.26 -4.37,0.23 -0.55,0.24 -5.5299999,1.2700003 -4.1499999,1.4300003 z m 1.25,-2.3900003 c 1.22,-0.92 4.2299999,0.55 2.2999999,-0.92 -0.19,-0.19 -4.2299999,1.09 -2.2999999,0.92 z m 4.4599999,0.18 c 1.43,0 -0.62,-1.93 1.09,-1 -0.28,-0.92 -2,-1.09 -2.82,-1.45 -0.47,0.78 0.92,2.44 1.73,2.43 z m -3.6799999,-4.07 c 0.5,-0.67 -0.87,0.34 0,0 z m 1.8699999,0.44 c 2.31,-0.31 -0.59,-1 -0.47,0 z m -3.4499999,-2.67 c -1.63,-2.11999998 3.0599999,0.36 1.45,-1.87999998 -1.43,-1.09 -2.77,1.25999998 -1.45,1.87999998 z M 28.420367,13.665524 c 0.75,-1.32 -3.08,-1.78 -0.5,-0.47 0.23,0.08 0.18,0.56 0.5,0.47 z" />
</svg>
