<?xml version="1.0" encoding="UTF-8" standalone="no"?>
<svg
   xmlns:svg="http://www.w3.org/2000/svg"
   xmlns="http://www.w3.org/2000/svg"
   height="42.416977"
   width="215.9485"
   version="1.1"
   viewBox="0 0 215.9485 42.416977"
   data-name="Layer 3"
   id="Layer_3">
  <defs
     id="defs91" />
  <title
     id="title68">SQLAlchemy</title>
  <path
     style="fill:#d71f00"
     id="path70"
     d="m 74.388731,28.09 a 5.35,5.35 0 0 0 3.34,-3.25 c 2.73,-5.86 5.52,-11.69 8.32,-17.52 0.53,-1.11 0.76,-2.48 2.55,-2.47 1.79,0.01 2,1.42 2.55,2.49 2.79,5.47 5.52,11 8.27,16.46 a 8.42,8.42 0 0 0 0.44,0.86 c 0.899999,1.38 1.489999,3.55 3.559999,3 2.07,-0.55 1.43,-2.68 1.42,-4.17 0,-6 0.53,-12 -0.52,-17.89 a 1.65,1.65 0 0 1 0.77,-2 42.41,42.41 0 0 1 7.22,-3.6 0.58,0.58 0 0 1 0.17,0.93 c -2.34,2.3 -2.09,5.26 -2.11,8.15 q 0,7.63 -0.06,15.27 c 0,1.3 0,2.63 1.38,3.38 a 1.08,1.08 0 0 1 0.67,1.56 1.56,1.56 0 0 1 -1.63,0.79 c -2.91,0 -5.81,0 -8.72,0 q -4.599999,0 -9.209999,-0.06 c -0.86,0 -1.93,0.2 -2,-1.13 -0.07,-1.33 1,-1.15 1.73,-1.2 1.74,-0.13 1.61,-0.88 1.12,-2.23 -0.95,-2.61 -2.42,-4 -5.38,-3.52 a 11.26,11.26 0 0 1 -3.38,0 c -2,-0.26 -2.93,0.62 -3.59,2.38 -0.66,1.76 -1.32,3.29 1.52,3.44 a 0.91,0.91 0 0 1 0.93,1.15 1.19,1.19 0 0 1 -1.34,1.12 c -2.64,-0.27 -5.32,0.3 -7.94,-0.36 q -0.04,-0.77 -0.08,-1.58 z m 12.62,-8.68 c 3.54,0 3.54,0 2,-3.06 a 2.26,2.26 0 0 0 -0.11,-0.22 c -0.68,-1.06 -0.83,-3 -2,-3 -1.17,0 -1.35,1.92 -1.87,3 -1.49,3.24 -1.45,3.26 1.98,3.28 z" />
  <path
     id="path72"
     d="m 31.628731,34.62 a 4.54,4.54 0 0 1 2.27,-3 c 1.74,-1.22 1.2,-1.85 -0.35,-2.62 a 16.82,16.82 0 0 1 -7.13,-6 c -2.7,-4.35 -2.25,-9 1.4,-12.57 4,-3.88 8.57,-6.37 14.34,-5.67 a 9.9,9.9 0 0 1 8.93,10.49 c -0.23,7.32 -3.86,12 -10.93,14.24 a 2.37,2.37 0 0 0 -1.7,0.83 c 0.24,0.88 1.1,0.85 1.71,1.1 4.64,1.88 9.36,3.58 13.92,5.63 2.09,0.94 3.15,0.42 4,-1.41 0.24,-0.51 0.54,-1 0.83,-1.48 a 1,1 0 0 1 0.9,-0.68 1,1 0 0 1 0.74,1.09 c 0.54,3 -2.38,6.38 -5.51,6.36 a 11.5,11.5 0 0 1 -4.9,-1.21 c -2.77,-1.32 -5.53,-2.67 -8.33,-3.91 -4.81,-2.14 -5.18,-2.15 -10.19,-1.19 z m 14.23,-17.52 c 0.19,-6.52 -4.1,-8.66 -10.67,-7.8 -3,0.39 -5,3.23 -5,6.26 -0.08,4.38 3,6.55 6.15,8.58 3.76,2.45 7.18,1.19 8.84,-3 a 11,11 0 0 0 0.68,-4.04 z" />
  <path
     style="fill:#d71f00"
     id="path74"
     d="m 172.66873,15.31 c 1.21,-0.94 2.19,-1.77 3.23,-2.5 3,-2.07 4.46,-1.9 6.38,1.13 1,1.6 1.73,1.91 3,0.38 a 4.84,4.84 0 0 1 1.25,-1.1 c 1.47,-0.87 2.84,-2.61 4.76,-1.51 2.22,1.27 4,3.06 4,5.92 0,2.26 -0.18,4.52 -0.35,6.77 -0.1,1.35 -0.17,2.6 1.31,3.31 a 1,1 0 0 1 0.69,1.36 1.4,1.4 0 0 1 -1.49,1 h -6.54 a 1.19,1.19 0 0 1 -1.2,-0.65 0.91,0.91 0 0 1 0.44,-1.24 c 1.42,-0.69 1.51,-2 1.59,-3.31 0.13,-2.17 0.15,-4.35 0.08,-6.53 a 2.47,2.47 0 0 0 -1.8,-2.36 c -1,-0.33 -1.66,0.39 -2.3,1 -2.55,2.48 -2.75,8.44 -0.32,10.92 a 1.15,1.15 0 0 1 0.45,1.25 1.24,1.24 0 0 1 -1.28,0.9 h -7 a 1.06,1.06 0 0 1 -1.12,-0.74 1.21,1.21 0 0 1 0.52,-1.24 c 1.7,-1.85 2.39,-8.85 1.04,-10.94 -0.85,-1.36 -1.86,-1.63 -3.18,-0.5 -2.8,2.38 -3.18,8.5 -0.64,11.3 1,1.09 0.48,2 -0.67,2 a 54.2,54.2 0 0 1 -7.49,0 0.88,0.88 0 0 1 -0.42,-1.7 c 1.61,-1 1.55,-2.54 1.64,-4 a 22.86,22.86 0 0 0 -0.66,-8.4 c -0.26,-0.84 -0.67,-1.78 0.41,-2.34 1.46,-0.76 2.75,-2.28 4.56,-1.71 1.25,0.4 0.69,1.81 0.83,2.8 a 6.22,6.22 0 0 0 0.28,0.73 z" />
  <path
     id="path76"
     d="m 12.128731,30.61 a 30.68,30.68 0 0 1 -7.77,-1.39 c -2.24,-0.79 -2.64,-1.66 -1.21,-3.56 1.43,-1.9 0.9,-3 -0.46,-4.58 -4,-4.54 -3.50999998,-8.48 1.29,-12.16 a 38.68,38.68 0 0 1 4.03,-2.62 10.1,10.1 0 0 1 10,-0.62 c 1.42,0.68 2.77,1 3.73,-0.75 a 0.84,0.84 0 0 1 1.17,-0.53 1,1 0 0 1 0.36,1.29 23.38,23.38 0 0 1 -2.52,6 c -0.7,1.12 -1.61,0.83 -2.51,0.28 a 19.37,19.37 0 0 0 -4.61,-2.12 7.77,7.77 0 0 0 -4.06,-0.24 c -1.8,0.43 -3.49,1.17 -3.86,3.2 -0.4,2.18 0.7,3.9 2.24,5.35 0.77,0.72 1.49,0.35 2.16,-0.21 1.42,-1.19 2.87,-2.36 4.24,-3.62 a 3.49,3.49 0 0 1 4,-0.63 c 5.21,2 6.74,7.46 3.26,11.82 -2.85,3.58 -5.71,5.17 -9.48,5.09 z m 2.54,-4.66 c 1.65,0.05 3.17,-0.24 3.6,-2.11 a 4.58,4.58 0 0 0 -1.7,-5 c -1.53,-1.17 -2.84,-0.53 -4.1,0.61 -1.08,1 -2.27,1.82 -3.37,2.77 -1.1,0.95 -1,1.94 0.39,2.58 a 14.32,14.32 0 0 0 5.18,1.16 z" />
  <path
     style="fill:#d71f00"
     id="path78"
     d="m 208.77873,33.3 c 1.69,0.08 3.39,0.11 5.07,0.27 1.68,0.16 2.3,1.17 1.73,2.71 a 22.21,22.21 0 0 1 -3.3,5.62 0.9,0.9 0 0 1 -1.24,0.41 c -0.51,-0.34 -0.23,-0.84 -0.08,-1.3 1,-3 0.95,-3 -2.13,-3.07 a 44,44 0 0 0 -8,0.57 c -1.53,0.25 -3.06,0.52 -3.77,2.2 a 0.85,0.85 0 0 1 -1.15,0.59 c -0.55,-0.25 -0.37,-0.81 -0.31,-1.28 0.47,-3.62 2.58,-6.1 5.37,-8.27 3.1,-2.41 2.9,-1.94 1.06,-5.44 -1.76,-3.34 -3.48,-6.71 -5.26,-10 -0.69,-1.28 -0.46,-2 0.94,-2.59 1.87,-0.74 3.67,-1.66 5.52,-2.46 0.54,-0.23 1.25,-0.74 1.68,0.12 0.34,0.68 -0.31,1 -0.77,1.31 -1.66,1 -1.53,2.3 -0.81,3.75 1.22,2.46 2.48,4.9 3.68,7.37 0.7,1.44 1.34,1.3 2.22,0.13 2.34,-3.11 2.2,-5.65 -0.49,-7.48 -1,-0.65 -2.41,-1 -1.69,-2.7 a 4.3,4.3 0 0 1 4.76,-1.85 c 4.21,1.92 5.39,6.14 2.7,10.12 -2.38,3.51 -5.7,6.14 -8.84,8.91 -0.76,0.67 -2.3,1.18 -2,2.17 0.3,0.99 1.85,0.3 2.84,0.4 0.72,0.07 1.45,0 2.18,0 V 33.3 Z" />
  <path
     style="fill:#d71f00"
     id="path80"
     d="m 147.45873,21.58 c -0.08,1 -0.15,1.93 -0.24,2.9 -0.12,1.34 -0.12,2.59 1.36,3.3 a 1,1 0 0 1 0.58,1.41 1.31,1.31 0 0 1 -1.31,0.88 q -3.39,0 -6.78,0 a 1.1,1.1 0 0 1 -1.18,-0.67 1.2,1.2 0 0 1 0.46,-1.26 c 1.72,-1.89 2.55,-8.51 1.39,-10.74 -0.84,-1.63 -2.1,-1.89 -3.53,-0.71 -2.82,2.32 -3.19,8.65 -0.63,11.26 a 1.1,1.1 0 0 1 0.43,1.27 1.28,1.28 0 0 1 -1.3,0.9 q -3.51,0 -7,0 a 1.05,1.05 0 0 1 -1.17,-0.65 1,1 0 0 1 0.49,-1.25 c 1.43,-0.82 1.52,-2.22 1.52,-3.59 0,-6.21 0.51,-12.44 -0.48,-18.62 a 2.09,2.09 0 0 1 1.19,-2.57 c 2,-1 3.85,-2 5.78,-3 a 1,1 0 0 1 1.32,0 0.83,0.83 0 0 1 -0.28,1.26 c -2.12,1.5 -2,3.71 -2,5.9 0,1.94 -0.12,3.87 -0.15,5.81 0,0.53 -0.33,1.23 0.33,1.52 0.66,0.29 1,-0.42 1.4,-0.72 0.4,-0.3 0.73,-0.65 1.14,-0.89 1.48,-0.85 2.85,-2.56 4.78,-1.4 2.12,1.27 3.87,3 4,5.7 0.07,1.37 0,2.74 0,4.12 h -0.15 z" />
  <path
     id="path82"
     d="m 74.388731,28.09 q 0,0.81 0.08,1.62 a 5.1,5.1 0 0 1 -2.55,0.64 c -5.65,-0.07 -11.31,-0.12 -17,-0.18 a 13.2,13.2 0 0 1 -1.45,-0.07 1.35,1.35 0 0 1 -1.47,-1 1.13,1.13 0 0 1 1.11,-1.32 c 1.93,-0.39 2.31,-1.78 2.31,-3.45 0,-4.28 0,-8.56 0,-12.85 0,-1.85 -0.49,-3.34 -2.41,-4 a 1.2,1.2 0 0 1 -1,-1.45 1.36,1.36 0 0 1 1.49,-1 q 5,0 9.94,0 a 1.2,1.2 0 0 1 1.3,0.88 1.14,1.14 0 0 1 -1,1.4 c -2,0.51 -2.33,2 -2.33,3.73 0,4.12 -0.06,8.24 0,12.36 0,2.66 0.74,3.28 3.33,3.36 3.47,0.11 6.79,0 7.67,-4.41 a 0.94,0.94 0 0 1 1,-0.87 1.06,1.06 0 0 1 0.86,1.27 c 0.11,1.79 0.1,3.56 0.12,5.34 z" />
  <path
     style="fill:#d71f00"
     id="path84"
     d="m 149.83873,22.29 c 0,-4.71 4.5,-10.24 8.48,-11.13 2,-0.44 6.08,2.28 6.39,4.25 a 1.92,1.92 0 0 1 -1.32,2.27 c -2.22,1 -4.39,2 -6.62,3 -1.31,0.55 -1.4,1.31 -0.84,2.47 1.27,2.62 3.58,3.37 6.23,2 0.66,-0.35 1.34,-1.24 2.09,-0.3 0.75,0.94 -0.24,1.56 -0.77,2.2 a 4.51,4.51 0 0 1 -0.52,0.51 c -2.41,2.06 -5,3.91 -8.31,2.42 -3.48,-1.62 -4.64,-4.76 -4.81,-7.69 z m 7.35,-7.15 a 0.73,0.73 0 0 0 -1.25,0.41 4.06,4.06 0 0 0 -0.86,2.22 c -0.07,0.48 0.1,1.23 0.67,1 1.2,-0.58 3,-0.65 3.43,-1.94 0.29,-0.83 -1.09,-1.37 -1.99,-1.69 z" />
  <path
     style="fill:#d71f00"
     id="path86"
     d="m 113.55873,22.46 c 0.07,-5 4.74,-10.62 8.62,-11.33 1.88,-0.35 5.79,2.3 6.23,4.18 0.38,1.61 -0.69,2.17 -1.86,2.63 -1.17,0.46 -2.19,1.33 -3.16,-0.23 -0.76,-1.21 -1.58,-3 -3.18,-2.4 -1.6,0.6 -1.4,2.72 -1.35,4.3 a 9,9 0 0 0 0.62,3.06 c 1.28,3.18 3.54,3.93 6.57,2.32 0.61,-0.32 1.22,-1 1.91,-0.23 0.69,0.77 0,1.46 -0.56,2 -0.23,0.23 -0.45,0.46 -0.7,0.67 -2.46,2.12 -5.09,4.08 -8.49,2.41 a 8.16,8.16 0 0 1 -4.65,-7.38 z" />
</svg>
